<svg id="Layer_5" data-name="Layer 5" xmlns="http://www.w3.org/2000/svg" viewBox="0 0 1320 729.87"><defs><style>.cls-1{fill:#fee2b1;}.cls-2{fill:#f6d7aa;}.cls-3{fill:#fff;}.cls-4{fill:#dadada;}.cls-5{fill:#f2f2f2;}.cls-6{opacity:0.17;}.cls-7{fill:#3a2008;}.cls-8{fill:#542c08;}.cls-9{fill:#fcb737;}.cls-10{fill:#a1c271;stroke:#39a250;stroke-miterlimit:10;}.cls-11{fill:#cc2e51;}.cls-12{fill:#e48b4a;}.cls-13{fill:#f0965c;}.cls-14{fill:#c08c56;}.cls-15{fill:#7d00c4;}.cls-16{fill:#bc0019;}.cls-17{fill:#572621;}.cls-18{fill:#974e0a;}.cls-19{fill:#9f5b15;}.cls-20{fill:#d18515;}.cls-21{fill:#fdc600;}.cls-22{fill:#9f9f9f;}.cls-23{fill:#85633f;}.cls-24{fill:#331808;}.cls-25{fill:#377c0b;}.cls-26{fill:#51bb08;}.cls-27{fill:#3e9700;}</style></defs><title>1</title><rect class="cls-1" x="25.55" y="25.13" width="1268.91" height="679.74"/><path class="cls-2" d="M1280.45,39.13V690.87H39.55V39.13H1280.45m28-28H11.55V718.87H1308.45V11.13h0Z"/><path class="cls-3" d="M1297.45,22.13V707.87H22.55V22.13H1297.45m22-22H0.55V729.87H1319.45V0.13h0Z"/><circle class="cls-2" cx="298" cy="232.33" r="114.36"/><circle class="cls-3" cx="298" cy="232.33" r="106.67"/><circle class="cls-2" cx="678" cy="525.33" r="114.36"/><circle class="cls-3" cx="678" cy="525.33" r="106.67"/><circle class="cls-2" cx="1033" cy="232.33" r="114.36"/><circle class="cls-3" cx="1033" cy="232.33" r="106.67"/><circle class="cls-2" cx="1050.01" cy="560.65" r="72.5"/><circle class="cls-3" cx="1050.01" cy="560.65" r="66.55"/><circle class="cls-2" cx="669.35" cy="181.68" r="72.5"/><circle class="cls-3" cx="669.35" cy="181.68" r="66.55"/><circle class="cls-2" cx="308.65" cy="563.34" r="72.5"/><circle class="cls-3" cx="308.65" cy="563.34" r="66.55"/><path class="cls-4" d="M269.67,289.19a18.54,18.54,0,1,1-.48-4.23A19,19,0,0,1,269.67,289.19Z"/><path class="cls-5" d="M268,289.19a16.85,16.85,0,1,1-.43-3.84A17.28,17.28,0,0,1,268,289.19Z"/><circle class="cls-6" cx="251.38" cy="290.11" r="11.54" transform="translate(-95.34 125.37) rotate(-23.68)"/><path class="cls-6" d="M267.53,285.35l-0.2.1-4.75,2.08a1.83,1.83,0,0,1-2.41-.94,1.79,1.79,0,0,1-.15-0.73,1.82,1.82,0,0,1,1.09-1.67l4.75-2.08a1.87,1.87,0,0,1,.49-0.14A16.87,16.87,0,0,1,267.53,285.35Z"/><circle class="cls-3" cx="250.99" cy="288.94" r="11.54" transform="translate(-94.9 125.11) rotate(-23.68)"/><circle class="cls-7" cx="251.1" cy="288.87" r="8.8" transform="translate(-94.87 125.15) rotate(-23.68)"/><path class="cls-8" d="M256.14,283.84a7.16,7.16,0,0,1-11.25,8.71A7.16,7.16,0,1,0,256.14,283.84Z"/><rect class="cls-3" x="259.42" y="281.82" width="8.83" height="3.65" rx="1.62" ry="1.62" transform="translate(-91.7 129.83) rotate(-23.68)"/><path class="cls-4" d="M339.82,516.27a18.54,18.54,0,1,1-2.65-3.33A19,19,0,0,1,339.82,516.27Z"/><path class="cls-5" d="M338.37,517.17a16.85,16.85,0,1,1-2.41-3A17.28,17.28,0,0,1,338.37,517.17Z"/><circle class="cls-6" cx="324.81" cy="526.76" r="11.54" transform="translate(-293.41 498.81) rotate(-55.75)"/><path class="cls-6" d="M336,514.15a1.53,1.53,0,0,1-.11.19l-2.92,4.28a1.83,1.83,0,0,1-2.54.48,1.79,1.79,0,0,1-.52-0.54,1.82,1.82,0,0,1,0-2l2.91-4.29a1.87,1.87,0,0,1,.34-0.38A16.87,16.87,0,0,1,336,514.15Z"/><circle class="cls-3" cx="323.85" cy="525.97" r="11.54" transform="translate(-293.18 497.68) rotate(-55.75)"/><circle class="cls-7" cx="323.92" cy="525.85" r="8.8" transform="translate(-293.05 497.68) rotate(-55.75)"/><path class="cls-8" d="M325.51,518.92a7.16,7.16,0,0,1-4.91,13.35A7.16,7.16,0,1,0,325.51,518.92Z"/><rect class="cls-3" x="327.51" y="512.84" width="8.83" height="3.65" rx="1.62" ry="1.62" transform="translate(-280.3 499.42) rotate(-55.75)"/><path class="cls-4" d="M322.94,604.36a18.54,18.54,0,1,1,.71-4.2A19,19,0,0,1,322.94,604.36Z"/><path class="cls-5" d="M321.3,603.88a16.85,16.85,0,1,1,.65-3.81A17.28,17.28,0,0,1,321.3,603.88Z"/><circle class="cls-6" cx="305.11" cy="600.18" r="11.54" transform="translate(-77 45.83) rotate(-7.63)"/><path class="cls-6" d="M321.95,600.07l-0.22,0-5.14.69a1.83,1.83,0,0,1-2.05-1.57,1.79,1.79,0,0,1,.06-0.74,1.82,1.82,0,0,1,1.51-1.31l5.14-.69a1.87,1.87,0,0,1,.51,0A16.87,16.87,0,0,1,321.95,600.07Z"/><circle class="cls-3" cx="305.06" cy="598.95" r="11.54" transform="translate(-76.83 45.81) rotate(-7.63)"/><circle class="cls-7" cx="305.19" cy="598.92" r="8.8" transform="translate(-76.83 45.83) rotate(-7.63)"/><path class="cls-8" d="M311.42,595.48a7.16,7.16,0,0,1-13.22,5.26A7.16,7.16,0,1,0,311.42,595.48Z"/><rect class="cls-3" x="314.45" y="595.59" width="8.83" height="3.65" rx="1.62" ry="1.62" transform="translate(-76.51 47.63) rotate(-7.63)"/><path class="cls-4" d="M644.65,466.92a18.54,18.54,0,1,1-.31-4.24A19,19,0,0,1,644.65,466.92Z"/><path class="cls-5" d="M642.95,466.86a16.85,16.85,0,1,1-.28-3.86A17.28,17.28,0,0,1,642.95,466.86Z"/><circle class="cls-6" cx="626.34" cy="467.12" r="11.54" transform="translate(-127.38 261.17) rotate(-21.43)"/><path class="cls-6" d="M642.67,463l-0.2.09L637.64,465a1.83,1.83,0,0,1-2.37-1,1.79,1.79,0,0,1-.12-0.74,1.82,1.82,0,0,1,1.16-1.63l4.82-1.9a1.87,1.87,0,0,1,.49-0.12A16.87,16.87,0,0,1,642.67,463Z"/><circle class="cls-3" cx="626" cy="465.94" r="11.54" transform="translate(-126.97 260.96) rotate(-21.43)"/><circle class="cls-7" cx="626.12" cy="465.87" r="8.8" transform="translate(-126.94 261) rotate(-21.43)"/><path class="cls-8" d="M631.35,461a7.16,7.16,0,0,1-11.59,8.26A7.16,7.16,0,1,0,631.35,461Z"/><rect class="cls-3" x="634.63" y="459.33" width="8.83" height="3.65" rx="1.62" ry="1.62" transform="translate(-124.32 265.4) rotate(-21.43)"/><path class="cls-4" d="M707,463.51a18.54,18.54,0,1,1,2.43-3.49A19,19,0,0,1,707,463.51Z"/><path class="cls-5" d="M705.75,462.38a16.85,16.85,0,1,1,2.21-3.18A17.28,17.28,0,0,1,705.75,462.38Z"/><circle class="cls-6" cx="692.67" cy="452.14" r="11.54" transform="translate(52.7 976.22) rotate(-72.45)"/><path class="cls-6" d="M708,459.21l-0.21-.05-4.94-1.56a1.83,1.83,0,0,1-1.19-2.29,1.79,1.79,0,0,1,.37-0.65,1.82,1.82,0,0,1,1.93-.54l4.94,1.56a1.87,1.87,0,0,1,.46.22A16.87,16.87,0,0,1,708,459.21Z"/><circle class="cls-3" cx="693.15" cy="451" r="11.54" transform="translate(54.12 975.88) rotate(-72.45)"/><circle class="cls-7" cx="693.28" cy="451.03" r="8.8" transform="translate(54.18 976.03) rotate(-72.45)"/><path class="cls-8" d="M700.39,450.57a7.16,7.16,0,0,1-14.2-.87A7.16,7.16,0,1,0,700.39,450.57Z"/><rect class="cls-3" x="701.89" y="453.67" width="8.83" height="3.65" rx="1.62" ry="1.62" transform="translate(170.24 -191.79) rotate(17.55)"/><path class="cls-4" d="M773.55,547.28a18.54,18.54,0,1,1,0-4.26A19,19,0,0,1,773.55,547.28Z"/><path class="cls-5" d="M771.86,547.09a16.85,16.85,0,1,1,0-3.87A17.28,17.28,0,0,1,771.86,547.09Z"/><circle class="cls-6" cx="755.27" cy="546.15" r="11.54" transform="matrix(0.95, -0.3, 0.3, 0.95, -128.09, 248.84)"/><path class="cls-6" d="M771.85,543.22l-0.21.08-4.95,1.54a1.83,1.83,0,0,1-2.29-1.2,1.79,1.79,0,0,1-.07-0.74,1.82,1.82,0,0,1,1.27-1.54l4.95-1.54a1.87,1.87,0,0,1,.5-0.08A16.87,16.87,0,0,1,771.85,543.22Z"/><circle class="cls-3" cx="755.02" cy="544.94" r="11.54" transform="translate(-127.74 248.71) rotate(-17.27)"/><circle class="cls-7" cx="755.14" cy="544.89" r="8.8" transform="translate(-127.72 248.75) rotate(-17.27)"/><path class="cls-8" d="M760.71,540.45a7.16,7.16,0,0,1-12.16,7.39A7.16,7.16,0,1,0,760.71,540.45Z"/><rect class="cls-3" x="763.96" y="539.29" width="8.83" height="3.65" rx="1.62" ry="1.62" transform="matrix(0.95, -0.3, 0.3, 0.95, -126, 252.51)"/><path class="cls-4" d="M1104.82,584.29a18.54,18.54,0,1,1,1.4-4A19,19,0,0,1,1104.82,584.29Z"/><path class="cls-5" d="M1103.28,583.55a16.85,16.85,0,1,1,1.28-3.65A17.28,17.28,0,0,1,1103.28,583.55Z"/><circle class="cls-6" cx="1087.94" cy="577.19" r="11.54" transform="translate(472.75 1644.1) rotate(-87.98)"/><path class="cls-6" d="M1104.56,579.9h-0.22l-5.18-.18a1.83,1.83,0,0,1-1.76-1.89,1.79,1.79,0,0,1,.18-0.72,1.82,1.82,0,0,1,1.71-1l5.18,0.18a1.87,1.87,0,0,1,.5.09A16.87,16.87,0,0,1,1104.56,579.9Z"/><circle class="cls-3" cx="1088.1" cy="575.96" r="11.54" transform="matrix(0.04, -1, 1, 0.04, 474.13, 1643.08)"/><circle class="cls-7" cx="1088.23" cy="575.96" r="8.8" transform="translate(474.26 1643.2) rotate(-87.98)"/><path class="cls-8" d="M1095,573.61a7.16,7.16,0,0,1-13.92,3A7.16,7.16,0,1,0,1095,573.61Z"/><rect class="cls-3" x="1097.55" y="574.94" width="8.83" height="3.65" rx="1.62" ry="1.62" transform="translate(21.02 -38.5) rotate(2.02)"/><path class="cls-4" d="M1059.82,611.29a18.54,18.54,0,1,1,1.4-4A19,19,0,0,1,1059.82,611.29Z"/><path class="cls-5" d="M1058.28,610.55a16.85,16.85,0,1,1,1.28-3.65A17.28,17.28,0,0,1,1058.28,610.55Z"/><circle class="cls-6" cx="1042.94" cy="604.19" r="11.54" transform="translate(402.35 1625.18) rotate(-87.98)"/><path class="cls-6" d="M1059.56,606.9h-0.22l-5.18-.18a1.83,1.83,0,0,1-1.76-1.89,1.79,1.79,0,0,1,.18-0.72,1.82,1.82,0,0,1,1.71-1l5.18,0.18a1.87,1.87,0,0,1,.5.09A16.87,16.87,0,0,1,1059.56,606.9Z"/><circle class="cls-3" cx="1043.1" cy="602.96" r="11.54" transform="matrix(0.04, -1, 1, 0.04, 403.73, 1624.15)"/><circle class="cls-7" cx="1043.23" cy="602.96" r="8.8" transform="translate(403.87 1624.28) rotate(-87.98)"/><path class="cls-8" d="M1050,600.61a7.16,7.16,0,0,1-13.92,3A7.16,7.16,0,1,0,1050,600.61Z"/><rect class="cls-3" x="1052.55" y="601.94" width="8.83" height="3.65" rx="1.62" ry="1.62" transform="translate(21.95 -36.89) rotate(2.02)"/><path class="cls-4" d="M255.67,183.19a18.54,18.54,0,1,1-.48-4.23A19,19,0,0,1,255.67,183.19Z"/><path class="cls-5" d="M254,183.19a16.85,16.85,0,1,1-.43-3.84A17.28,17.28,0,0,1,254,183.19Z"/><circle class="cls-6" cx="237.38" cy="184.11" r="11.54" transform="translate(-53.95 110.82) rotate(-23.68)"/><path class="cls-6" d="M253.53,179.35l-0.2.1-4.75,2.08a1.83,1.83,0,0,1-2.41-.94,1.79,1.79,0,0,1-.15-0.73,1.82,1.82,0,0,1,1.09-1.67l4.75-2.08a1.87,1.87,0,0,1,.49-0.14A16.87,16.87,0,0,1,253.53,179.35Z"/><circle class="cls-3" cx="236.99" cy="182.94" r="11.54" transform="translate(-53.51 110.57) rotate(-23.68)"/><circle class="cls-7" cx="237.1" cy="182.87" r="8.8" transform="translate(-53.48 110.61) rotate(-23.68)"/><path class="cls-8" d="M242.14,177.84a7.16,7.16,0,0,1-11.25,8.71A7.16,7.16,0,1,0,242.14,177.84Z"/><rect class="cls-3" x="245.42" y="175.82" width="8.83" height="3.65" rx="1.62" ry="1.62" transform="translate(-50.31 115.28) rotate(-23.68)"/><path class="cls-4" d="M382.9,267.5a18.54,18.54,0,1,1,.74-4.19A19,19,0,0,1,382.9,267.5Z"/><path class="cls-5" d="M381.26,267a16.85,16.85,0,1,1,.68-3.81A17.28,17.28,0,0,1,381.26,267Z"/><circle class="cls-6" cx="365.1" cy="263.18" r="11.54" transform="translate(-29.94 47.52) rotate(-7.15)"/><path class="cls-6" d="M381.94,263.21l-0.22,0-5.14.64a1.83,1.83,0,0,1-2-1.58,1.79,1.79,0,0,1,.06-0.74,1.82,1.82,0,0,1,1.53-1.29l5.14-.65a1.87,1.87,0,0,1,.51,0A16.87,16.87,0,0,1,381.94,263.21Z"/><circle class="cls-3" cx="365.06" cy="261.95" r="11.54" transform="translate(-29.78 47.51) rotate(-7.15)"/><circle class="cls-7" cx="365.19" cy="261.92" r="8.8" transform="translate(-29.78 47.52) rotate(-7.15)"/><path class="cls-8" d="M371.45,258.53a7.16,7.16,0,0,1-13.27,5.15A7.16,7.16,0,1,0,371.45,258.53Z"/><rect class="cls-3" x="374.47" y="258.7" width="8.83" height="3.65" rx="1.62" ry="1.62" transform="translate(-29.5 49.22) rotate(-7.15)"/><path class="cls-4" d="M679.9,230.5a18.54,18.54,0,1,1,.74-4.19A19,19,0,0,1,679.9,230.5Z"/><path class="cls-5" d="M678.26,230a16.85,16.85,0,1,1,.68-3.81A17.28,17.28,0,0,1,678.26,230Z"/><circle class="cls-6" cx="662.1" cy="226.18" r="11.54" transform="translate(-23.01 84.22) rotate(-7.15)"/><path class="cls-6" d="M678.94,226.21l-0.22,0-5.14.64a1.83,1.83,0,0,1-2-1.58,1.79,1.79,0,0,1,.06-0.74,1.82,1.82,0,0,1,1.53-1.29l5.14-.65a1.87,1.87,0,0,1,.51,0A16.87,16.87,0,0,1,678.94,226.21Z"/><circle class="cls-3" cx="662.06" cy="224.95" r="11.54" transform="translate(-22.86 84.21) rotate(-7.15)"/><circle class="cls-7" cx="662.19" cy="224.92" r="8.8" transform="translate(-22.86 84.22) rotate(-7.15)"/><path class="cls-8" d="M668.45,221.53a7.16,7.16,0,0,1-13.27,5.15A7.16,7.16,0,1,0,668.45,221.53Z"/><rect class="cls-3" x="671.47" y="221.7" width="8.83" height="3.65" rx="1.62" ry="1.62" transform="translate(-22.58 85.92) rotate(-7.15)"/><path class="cls-4" d="M728.9,201.5a18.54,18.54,0,1,1,.74-4.19A19,19,0,0,1,728.9,201.5Z"/><path class="cls-5" d="M727.26,201a16.85,16.85,0,1,1,.68-3.81A17.28,17.28,0,0,1,727.26,201Z"/><circle class="cls-6" cx="711.1" cy="197.18" r="11.54" transform="translate(-19.02 90.1) rotate(-7.15)"/><path class="cls-6" d="M727.94,197.21l-0.22,0-5.14.64a1.83,1.83,0,0,1-2-1.58,1.79,1.79,0,0,1,.06-0.74,1.82,1.82,0,0,1,1.53-1.29l5.14-.65a1.87,1.87,0,0,1,.51,0A16.87,16.87,0,0,1,727.94,197.21Z"/><circle class="cls-3" cx="711.06" cy="195.95" r="11.54" transform="translate(-18.87 90.08) rotate(-7.15)"/><circle class="cls-7" cx="711.19" cy="195.92" r="8.8" transform="translate(-18.86 90.1) rotate(-7.15)"/><path class="cls-8" d="M717.45,192.53a7.16,7.16,0,0,1-13.27,5.15A7.16,7.16,0,1,0,717.45,192.53Z"/><rect class="cls-3" x="720.47" y="192.7" width="8.83" height="3.65" rx="1.62" ry="1.62" transform="translate(-18.58 91.8) rotate(-7.15)"/><path class="cls-4" d="M1057.39,317.09a18.54,18.54,0,1,1,2.33-3.56A19,19,0,0,1,1057.39,317.09Z"/><path class="cls-5" d="M1056.07,316a16.85,16.85,0,1,1,2.11-3.24A17.28,17.28,0,0,1,1056.07,316Z"/><circle class="cls-6" cx="1042.7" cy="306.15" r="11.54" transform="translate(462.8 1225.21) rotate(-74.11)"/><path class="cls-6" d="M1058.18,312.77l-0.22,0-5-1.42a1.83,1.83,0,0,1-1.26-2.26,1.79,1.79,0,0,1,.35-0.66,1.82,1.82,0,0,1,1.91-.59l5,1.42a1.87,1.87,0,0,1,.46.21A16.87,16.87,0,0,1,1058.18,312.77Z"/><circle class="cls-3" cx="1043.15" cy="305" r="11.54" transform="translate(464.24 1224.8) rotate(-74.11)"/><circle class="cls-7" cx="1043.28" cy="305.02" r="8.8" transform="translate(464.31 1224.95) rotate(-74.11)"/><path class="cls-8" d="M1050.37,304.35a7.16,7.16,0,0,1-14.22-.46A7.16,7.16,0,1,0,1050.37,304.35Z"/><rect class="cls-3" x="1052.01" y="307.28" width="8.83" height="3.65" rx="1.62" ry="1.62" transform="matrix(0.96, 0.27, -0.27, 0.96, 124.97, -277.39)"/><path class="cls-4" d="M1129.54,240.4a18.54,18.54,0,1,1,0-4.26A19,19,0,0,1,1129.54,240.4Z"/><path class="cls-5" d="M1127.84,240.2a16.85,16.85,0,1,1,0-3.87A17.28,17.28,0,0,1,1127.84,240.2Z"/><circle class="cls-6" cx="1111.27" cy="239.15" r="11.54" transform="translate(-21.55 333.16) rotate(-16.89)"/><path class="cls-6" d="M1127.87,236.33l-0.21.08-5,1.5a1.83,1.83,0,0,1-2.28-1.22,1.79,1.79,0,0,1-.06-0.74,1.82,1.82,0,0,1,1.28-1.53l5-1.51a1.87,1.87,0,0,1,.5-0.08A16.87,16.87,0,0,1,1127.87,236.33Z"/><circle class="cls-3" cx="1111.02" cy="237.94" r="11.54" transform="translate(-21.21 333.03) rotate(-16.89)"/><circle class="cls-7" cx="1111.14" cy="237.89" r="8.8" transform="matrix(0.96, -0.29, 0.29, 0.96, -21.19, 333.07)"/><path class="cls-8" d="M1116.74,233.49a7.16,7.16,0,0,1-12.2,7.31A7.16,7.16,0,1,0,1116.74,233.49Z"/><rect class="cls-3" x="1119.98" y="232.38" width="8.83" height="3.65" rx="1.62" ry="1.62" transform="translate(-19.54 336.76) rotate(-16.89)"/><path class="cls-4" d="M1061.54,160.4a18.54,18.54,0,1,1,0-4.26A19,19,0,0,1,1061.54,160.4Z"/><path class="cls-5" d="M1059.84,160.2a16.85,16.85,0,1,1,0-3.87A17.28,17.28,0,0,1,1059.84,160.2Z"/><circle class="cls-6" cx="1043.27" cy="159.15" r="11.54" transform="translate(-1.24 309.95) rotate(-16.89)"/><path class="cls-6" d="M1059.87,156.33l-0.21.08-5,1.5a1.83,1.83,0,0,1-2.28-1.22,1.79,1.79,0,0,1-.06-0.74,1.82,1.82,0,0,1,1.28-1.53l5-1.51a1.87,1.87,0,0,1,.5-0.08A16.87,16.87,0,0,1,1059.87,156.33Z"/><circle class="cls-3" cx="1043.02" cy="157.94" r="11.54" transform="translate(-0.9 309.83) rotate(-16.89)"/><circle class="cls-7" cx="1043.14" cy="157.89" r="8.8" transform="matrix(0.96, -0.29, 0.29, 0.96, -0.88, 309.86)"/><path class="cls-8" d="M1048.74,153.49a7.16,7.16,0,0,1-12.2,7.31A7.16,7.16,0,1,0,1048.74,153.49Z"/><rect class="cls-3" x="1051.98" y="152.38" width="8.83" height="3.65" rx="1.62" ry="1.62" transform="translate(0.76 313.55) rotate(-16.89)"/><path class="cls-4" d="M612.37,182.49a18.54,18.54,0,1,1,.09,4.25A19,19,0,0,1,612.37,182.49Z"/><path class="cls-5" d="M614.07,182.64a16.85,16.85,0,1,1,.08,3.87A17.28,17.28,0,0,1,614.07,182.64Z"/><circle class="cls-6" cx="631.67" cy="185.24" r="11.54" transform="translate(-26.16 209.41) rotate(-18.45)"/><path class="cls-6" d="M615.15,188.51l0.2-.08,4.91-1.64a1.83,1.83,0,0,1,2.31,1.15,1.79,1.79,0,0,1,.09.74,1.82,1.82,0,0,1-1.24,1.57l-4.92,1.64a1.87,1.87,0,0,1-.5.09A16.87,16.87,0,0,1,615.15,188.51Z"/><circle class="cls-3" cx="630.95" cy="184.44" r="11.54" transform="translate(-25.94 209.14) rotate(-18.45)"/><circle class="cls-7" cx="630.83" cy="184.5" r="8.8" transform="translate(-25.97 209.1) rotate(-18.45)"/><path class="cls-8" d="M625.36,189a7.16,7.16,0,0,1,12-7.64A7.16,7.16,0,1,0,625.36,189Z"/><rect class="cls-3" x="613.26" y="186.71" width="8.83" height="3.65" rx="1.62" ry="1.62" transform="translate(1263.27 171.93) rotate(161.55)"/><path class="cls-4" d="M989.37,560.49a18.54,18.54,0,1,1,.09,4.25A19,19,0,0,1,989.37,560.49Z"/><path class="cls-5" d="M991.07,560.64a16.85,16.85,0,1,1,.08,3.87A17.28,17.28,0,0,1,991.07,560.64Z"/><circle class="cls-6" cx="1008.67" cy="563.24" r="11.54" transform="matrix(0.95, -0.32, 0.32, 0.95, -126.4, 348.13)"/><path class="cls-6" d="M992.15,566.51l0.2-.08,4.91-1.64a1.83,1.83,0,0,1,2.31,1.15,1.79,1.79,0,0,1,.09.74,1.82,1.82,0,0,1-1.24,1.57l-4.92,1.64a1.87,1.87,0,0,1-.5.09A16.87,16.87,0,0,1,992.15,566.51Z"/><circle class="cls-3" cx="1007.95" cy="562.44" r="11.54" transform="translate(-126.18 347.86) rotate(-18.45)"/><circle class="cls-7" cx="1007.83" cy="562.5" r="8.8" transform="translate(-126.21 347.83) rotate(-18.45)"/><path class="cls-8" d="M1002.36,567a7.16,7.16,0,0,1,12-7.64A7.16,7.16,0,1,0,1002.36,567Z"/><rect class="cls-3" x="990.26" y="564.71" width="8.83" height="3.65" rx="1.62" ry="1.62" transform="translate(2117.52 789.21) rotate(161.55)"/><path class="cls-4" d="M946.56,230.27a18.54,18.54,0,1,1-1.6,3.94A19,19,0,0,1,946.56,230.27Z"/><path class="cls-5" d="M948.06,231.09a16.85,16.85,0,1,1-1.45,3.58A17.28,17.28,0,0,1,948.06,231.09Z"/><circle class="cls-6" cx="963.2" cy="240.43" r="11.54" transform="translate(642.53 1179.96) rotate(-85.17)"/><path class="cls-6" d="M946.74,236.9H947l5.16,0.44a1.83,1.83,0,0,1,1.67,2,1.79,1.79,0,0,1-.21.72,1.82,1.82,0,0,1-1.76.95l-5.16-.43a1.87,1.87,0,0,1-.49-0.11A16.87,16.87,0,0,1,946.74,236.9Z"/><circle class="cls-3" cx="962.86" cy="239.41" r="11.54" transform="translate(643.22 1178.69) rotate(-85.17)"/><circle class="cls-7" cx="962.72" cy="239.41" r="8.8" transform="translate(643.1 1178.56) rotate(-85.17)"/><path class="cls-8" d="M955.9,241.43a7.16,7.16,0,0,1,14-2.28A7.16,7.16,0,1,0,955.9,241.43Z"/><rect class="cls-3" x="944.62" y="236.1" width="8.83" height="3.65" rx="1.62" ry="1.62" transform="matrix(-1, -0.08, 0.08, -1, 1874.68, 554.92)"/><path class="cls-4" d="M748.55,584.28a18.54,18.54,0,1,1,0-4.26A19,19,0,0,1,748.55,584.28Z"/><path class="cls-5" d="M746.86,584.09a16.85,16.85,0,1,1,0-3.87A17.28,17.28,0,0,1,746.86,584.09Z"/><path class="cls-9" d="M721.5,583.13a13.71,13.71,0,0,0,1.63,8.4l3.13,0q4,0.08,7.88.31L730.78,584Z"/><circle class="cls-10" cx="724.95" cy="577.09" r="4.27"/><circle class="cls-11" cx="723.95" cy="581.66" r="4.27"/><circle class="cls-11" cx="732.77" cy="588.55" r="4.27"/><circle class="cls-10" cx="737.58" cy="585.63" r="4.27"/><circle class="cls-10" cx="736.06" cy="577.71" r="4.27"/><path class="cls-12" d="M740.33,582c0.08,3.84-3,6.37-3.85,7.13a7.85,7.85,0,0,1-11.42-.08c-0.79-.68-3.76-3.24-3.83-7-0.1-4.9,4.65-9.67,9.55-9.55,3.92,0.09,6.53,3.28,7.2,4.1A8.81,8.81,0,0,1,740.33,582Z"/><path class="cls-13" d="M736,583.42c0.06,2.73-2.1,4.54-2.74,5.08a5.59,5.59,0,0,1-8.13-.06,7.16,7.16,0,0,1-2.73-5,7.06,7.06,0,0,1,6.8-6.8c2.79,0.07,4.65,2.34,5.12,2.92A6.28,6.28,0,0,1,736,583.42Z"/><path class="cls-4" d="M1019.55,295.28a18.54,18.54,0,1,1,0-4.26A19,19,0,0,1,1019.55,295.28Z"/><path class="cls-5" d="M1017.86,295.09a16.85,16.85,0,1,1,0-3.87A17.28,17.28,0,0,1,1017.86,295.09Z"/><path class="cls-9" d="M992.5,294.13a13.71,13.71,0,0,0,1.63,8.4l3.13,0q4,0.08,7.88.31l-3.34-7.87Z"/><circle class="cls-10" cx="995.95" cy="288.09" r="4.27"/><circle class="cls-11" cx="994.95" cy="292.66" r="4.27"/><circle class="cls-11" cx="1003.77" cy="299.55" r="4.27"/><circle class="cls-10" cx="1008.58" cy="296.63" r="4.27"/><circle class="cls-10" cx="1007.06" cy="288.71" r="4.27"/><path class="cls-12" d="M1011.33,293c0.08,3.84-3,6.37-3.85,7.13a7.85,7.85,0,0,1-11.42-.08c-0.79-.68-3.76-3.24-3.83-7-0.1-4.9,4.65-9.67,9.55-9.55,3.92,0.09,6.53,3.28,7.2,4.1A8.81,8.81,0,0,1,1011.33,293Z"/><path class="cls-13" d="M1007,294.42c0.06,2.73-2.1,4.54-2.74,5.08a5.59,5.59,0,0,1-8.13-.06,7.16,7.16,0,0,1-2.73-5,7.06,7.06,0,0,1,6.8-6.8c2.79,0.07,4.65,2.34,5.12,2.92A6.28,6.28,0,0,1,1007,294.42Z"/><path class="cls-4" d="M364.82,566.27a18.54,18.54,0,1,1-2.65-3.33A19,19,0,0,1,364.82,566.27Z"/><path class="cls-5" d="M363.37,567.17a16.85,16.85,0,1,1-2.41-3A17.28,17.28,0,0,1,363.37,567.17Z"/><path class="cls-14" d="M348.84,565.12a9.52,9.52,0,0,0-1.16.05,9.75,9.75,0,0,0-1.25.19,10.9,10.9,0,0,0-1.43.4,11.38,11.38,0,0,0-6.59,15.46c0.14,0.31.3,0.62,0.47,0.92a11,11,0,0,0,1.29,1.82,8.81,8.81,0,0,0,.62.67l0.29,0.27c0.19,0.18.39,0.35,0.6,0.52a11.39,11.39,0,0,0,9.15,2.28,9.56,9.56,0,0,0,1.16-.28,11.33,11.33,0,0,0,2.67-1.18c0.25-.15.49-0.31,0.73-0.48l0.13-.1a9.76,9.76,0,0,0,1-.8,11.37,11.37,0,0,0,2.64-13,11.1,11.1,0,0,0-.58-1.12,11.33,11.33,0,0,0-6.17-5c-0.35-.12-0.71-0.22-1.08-0.3h0A11.16,11.16,0,0,0,348.84,565.12Zm-0.62,13.72a2.39,2.39,0,0,1-.58-4.45,2.44,2.44,0,0,1,1.62-.22h0a2.3,2.3,0,0,1,.82.36,2.38,2.38,0,0,1,1,2.51,2.41,2.41,0,0,1-.55,1.06,2.3,2.3,0,0,1-.73.55A2.34,2.34,0,0,1,348.22,578.84Z"/><path class="cls-15" d="M342.87,568.46c-0.79,1.3-.15,2-1.11,3.66s-2.13,1.65-2.91,3c-1.61,2.7.16,8.05,3,9.2,1.09,0.44,2.16.2,3.9,1.24a7.4,7.4,0,0,0,1.69,1,5.7,5.7,0,0,0,3.41-.28c2.74-.75,4.11-1.13,4.68-1.56,1.39-1.05,1.94-2.39,2.76-4.36,0.67-1.61,1.08-2.61.9-3.91s-0.63-1.24-1.23-3.19-0.24-2.38-.83-3.16c-0.75-1-1.64-.78-3.72-1.73-2.39-1.09-2.11-1.79-3.6-2.24C347.42,565.35,344.13,566.39,342.87,568.46Zm8.76,8.29c0.31,1.2-1.31,3.1-2.47,2.94a6.48,6.48,0,0,1-1.11-.63c-1-.46-1.48-0.15-1.84-0.52s-0.16-1.39.2-2.58,0.62-2,1.32-2.3a3.12,3.12,0,0,1,1.6.1,2.17,2.17,0,0,1,1.49.58,5.26,5.26,0,0,1,.27,1.31C351.3,576.31,351.53,576.38,351.63,576.75Z"/><path class="cls-3" d="M358.56,570.71a11.1,11.1,0,0,1,.58,1.12l-2.64,13a9.76,9.76,0,0,1-1,.8Z"/><path class="cls-3" d="M346.88,578l-5.21,7.43c-0.21-.17-0.41-0.34-0.6-0.52l5.39-7.7A2.39,2.39,0,0,0,346.88,578Z"/><path class="cls-3" d="M348.43,574.13a2.33,2.33,0,0,0-.79.25l0-9.21a9.52,9.52,0,0,1,1.16-.05l1.27,9.41a2.3,2.3,0,0,0-.82-0.36h0l-0.81-6Z"/><path class="cls-3" d="M351.29,565.4h0c0.37,0.08.73,0.19,1.08,0.3l3,20c-0.24.17-.48,0.33-0.73,0.48l-2.6-17.34L352,587.41a9.56,9.56,0,0,1-1.16.28l-1-9a2.3,2.3,0,0,0,.73-0.55l0.67,5.92Z"/><path class="cls-3" d="M346.43,565.36l-5.64,19.27a8.81,8.81,0,0,1-.62-0.67l4.53-15.48c-2,4.78-4.32,10.11-5.82,13.66-0.17-.3-0.33-0.61-0.47-0.92,1.75-4.12,4.36-10.24,6.59-15.46A10.9,10.9,0,0,1,346.43,565.36Z"/><path class="cls-4" d="M736.23,502.36a28.2,28.2,0,1,1,0-6.47A28.92,28.92,0,0,1,736.23,502.36Z"/><path class="cls-5" d="M733.65,502.07a25.63,25.63,0,1,1,0-5.88A26.28,26.28,0,0,1,733.65,502.07Z"/><path class="cls-14" d="M713.78,485.21a9.89,9.89,0,0,0-1.15.36,10.13,10.13,0,0,0-1.21.52,11.33,11.33,0,0,0-1.33.79,11.82,11.82,0,0,0-2.47,17.29c0.23,0.28.47,0.54,0.72,0.8a11.47,11.47,0,0,0,1.78,1.48,9.16,9.16,0,0,0,.81.51l0.36,0.19c0.24,0.13.49,0.25,0.74,0.36a11.83,11.83,0,0,0,9.8-.17,9.94,9.94,0,0,0,1.09-.59,11.78,11.78,0,0,0,2.37-1.91c0.21-.22.41-0.45,0.6-0.68L726,504a10.15,10.15,0,0,0,.76-1.06,11.81,11.81,0,0,0-.84-13.79,11.54,11.54,0,0,0-.88-1,11.77,11.77,0,0,0-7.53-3.36c-0.39,0-.77,0-1.17,0h0A11.6,11.6,0,0,0,713.78,485.21Zm3.06,13.94a2.49,2.49,0,0,1-1.78-4.31,2.53,2.53,0,0,1,1.57-.66h0a2.39,2.39,0,0,1,.92.14,2.48,2.48,0,0,1,1.66,2.25,2.5,2.5,0,0,1-.27,1.22,2.39,2.39,0,0,1-.59.75A2.43,2.43,0,0,1,716.84,499.15Z"/><path class="cls-16" d="M708.67,490.17c-0.45,1.52.38,2-.13,4-0.55,2.11-1.69,2.23-2.13,3.77-0.9,3.14,2.32,8,5.49,8.43,1.21,0.15,2.22-.38,4.25.2a7.69,7.69,0,0,0,2,.53c1.07,0,1.9-.35,3.35-1.2,2.55-1.49,3.82-2.23,4.28-2.82,1.11-1.43,1.31-2.92,1.6-5.12,0.24-1.79.39-2.91-.15-4.17s-1-1.08-2.09-2.87-0.88-2.32-1.68-3c-1-.81-1.86-0.35-4.2-0.74-2.69-.46-2.6-1.23-4.22-1.29C712.42,485.82,709.39,487.75,708.67,490.17Zm11,6c0.64,1.12-.48,3.46-1.69,3.62a6.73,6.73,0,0,1-1.28-.33c-1.15-.19-1.52.25-2,0s-0.54-1.35-.49-2.65,0.08-2.2.71-2.66a3.24,3.24,0,0,1,1.63-.33,2.25,2.25,0,0,1,1.65.18,5.46,5.46,0,0,1,.63,1.24C719.25,495.79,719.5,495.79,719.7,496.14Z"/><path class="cls-3" d="M725,488.22a11.54,11.54,0,0,1,.88,1L726.75,503A10.15,10.15,0,0,1,726,504Z"/><path class="cls-3" d="M715.26,498.65L712,507.51c-0.25-.11-0.5-0.23-0.74-0.36l3.35-9.18A2.48,2.48,0,0,0,715.26,498.65Z"/><path class="cls-3" d="M715.79,494.37a2.42,2.42,0,0,0-.73.46l-2.43-9.26a9.89,9.89,0,0,1,1.15-.36l3.8,9.11a2.39,2.39,0,0,0-.92-0.14h0l-2.41-5.77Z"/><path class="cls-3" d="M716.31,484.84h0c0.39,0,.78,0,1.17,0l8.39,19.31c-0.19.23-.39,0.46-0.6,0.68L718,488.13l4.89,18.62a9.94,9.94,0,0,1-1.09.59l-3.45-8.8a2.39,2.39,0,0,0,.59-0.75l2.26,5.77Z"/><path class="cls-3" d="M711.42,486.1L710.92,507a9.16,9.16,0,0,1-.81-0.51l0.4-16.75c-0.77,5.35-1.62,11.31-2.18,15.27-0.25-.25-0.49-0.52-0.72-0.8,0.65-4.61,1.63-11.46,2.47-17.29A11.33,11.33,0,0,1,711.42,486.1Z"/><path class="cls-14" d="M713.56,491.51a9.93,9.93,0,0,0-.33-1.17,10.17,10.17,0,0,0-.48-1.23,11.37,11.37,0,0,0-.74-1.36,11.87,11.87,0,0,0-17.26-3.09c-0.28.22-.56,0.45-0.82,0.69a11.51,11.51,0,0,0-1.55,1.74,9.19,9.19,0,0,0-.54.79c-0.07.12-.14,0.23-0.21,0.35s-0.27.48-.39,0.73a11.88,11.88,0,0,0-.18,9.84,10,10,0,0,0,.55,1.11,11.82,11.82,0,0,0,1.83,2.44c0.21,0.22.43,0.43,0.66,0.63l0.13,0.11a10.18,10.18,0,0,0,1,.79,11.86,11.86,0,0,0,13.86-.35,11.58,11.58,0,0,0,1-.85,11.82,11.82,0,0,0,3.64-7.44c0-.39.06-0.77,0.06-1.17v0A11.65,11.65,0,0,0,713.56,491.51Zm-14.09,2.58a2.5,2.5,0,0,1,4.39-1.63,2.54,2.54,0,0,1,.61,1.6v0a2.4,2.4,0,0,1-.18.91,2.48,2.48,0,0,1-2.32,1.59,2.51,2.51,0,0,1-1.21-.31,2.4,2.4,0,0,1-.73-0.62A2.44,2.44,0,0,1,699.47,494.09Z"/><path class="cls-17" d="M708.77,486.22c-1.51-.5-2,0.3-4-0.27-2.09-.62-2.18-1.78-3.71-2.27-3.12-1-8.15,2-8.65,5.21-0.19,1.21.3,2.24-.35,4.26a7.72,7.72,0,0,0-.6,2c-0.09,1.07.29,1.92,1.08,3.4,1.4,2.61,2.1,3.91,2.68,4.39,1.39,1.17,2.88,1.42,5.08,1.79,1.79,0.3,2.9.49,4.19,0s1.12-.93,3-2,2.36-.8,3-1.58c0.84-1,.41-1.85.89-4.19,0.55-2.68,1.33-2.56,1.44-4.18C713,490.13,711.17,487,708.77,486.22Zm-6.38,10.85c-1.14.6-3.45-.61-3.57-1.82a6.76,6.76,0,0,1,.38-1.27c0.23-1.14-.19-1.54.1-2s1.37-.49,2.68-0.4,2.2,0.16,2.64.81a3.26,3.26,0,0,1,.27,1.65,2.26,2.26,0,0,1-.24,1.65,5.49,5.49,0,0,1-1.27.58C702.76,496.63,702.75,496.88,702.38,497.07Z"/><path class="cls-3" d="M710.15,502.7a11.58,11.58,0,0,1-1,.85l-13.86.35a10.18,10.18,0,0,1-1-.79Z"/><path class="cls-3" d="M700,492.53L691.25,489c0.12-.25.25-0.49,0.39-0.73l9.09,3.69A2.49,2.49,0,0,0,700,492.53Z"/><path class="cls-3" d="M704.3,493.21a2.43,2.43,0,0,0-.44-0.75l9.37-2.11a9.93,9.93,0,0,1,.33,1.17L704.29,495a2.4,2.4,0,0,0,.18-0.91v0l5.88-2.22Z"/><path class="cls-3" d="M713.84,494.07v0c0,0.4,0,.78-0.06,1.17L694.12,503c-0.23-.2-0.44-0.41-0.66-0.63l17-6.69-18.85,4.25a10,10,0,0,1-.55-1.11l9-3.15a2.4,2.4,0,0,0,.73.62l-5.86,2.06Z"/><path class="cls-3" d="M712.75,489.12l-20.91-1.23a9.19,9.19,0,0,1,.54-0.79l16.79,1-15.24-2.73c0.26-.24.54-0.47,0.82-0.69L712,487.76A11.37,11.37,0,0,1,712.75,489.12Z"/><path class="cls-14" d="M706.45,495.93a9.52,9.52,0,0,0-1.16.05,9.75,9.75,0,0,0-1.25.19,10.9,10.9,0,0,0-1.43.4A11.38,11.38,0,0,0,696,512c0.14,0.31.3,0.62,0.47,0.92a11,11,0,0,0,1.29,1.82,8.81,8.81,0,0,0,.62.67l0.29,0.27c0.19,0.18.39,0.35,0.6,0.52a11.39,11.39,0,0,0,9.15,2.28,9.56,9.56,0,0,0,1.16-.28,11.33,11.33,0,0,0,2.67-1.18c0.25-.15.49-0.31,0.73-0.48l0.13-.1a9.76,9.76,0,0,0,1-.8,11.37,11.37,0,0,0,2.64-13,11.1,11.1,0,0,0-.58-1.12,11.33,11.33,0,0,0-6.17-5c-0.35-.12-0.71-0.22-1.08-0.3h0A11.16,11.16,0,0,0,706.45,495.93Zm-0.62,13.72a2.39,2.39,0,0,1-.58-4.45,2.44,2.44,0,0,1,1.62-.22h0a2.3,2.3,0,0,1,.82.36,2.38,2.38,0,0,1,1,2.51,2.41,2.41,0,0,1-.55,1.06,2.3,2.3,0,0,1-.73.55A2.34,2.34,0,0,1,705.84,509.65Z"/><path class="cls-15" d="M700.48,499.28c-0.79,1.3-.15,2-1.11,3.66s-2.13,1.65-2.91,3c-1.61,2.7.16,8.05,3,9.2,1.09,0.44,2.16.2,3.9,1.24a7.4,7.4,0,0,0,1.69,1,5.7,5.7,0,0,0,3.41-.28c2.74-.75,4.11-1.13,4.68-1.56,1.39-1.05,1.94-2.39,2.76-4.36,0.67-1.61,1.08-2.61.9-3.91s-0.63-1.24-1.23-3.19-0.24-2.38-.83-3.16c-0.75-1-1.64-.78-3.72-1.73-2.39-1.09-2.11-1.79-3.6-2.24C705,496.16,701.75,497.2,700.48,499.28Zm8.76,8.29c0.31,1.2-1.31,3.1-2.47,2.94a6.48,6.48,0,0,1-1.11-.63c-1-.46-1.48-0.15-1.84-0.52s-0.16-1.39.2-2.58,0.62-2,1.32-2.3a3.12,3.12,0,0,1,1.6.1,2.17,2.17,0,0,1,1.49.58,5.26,5.26,0,0,1,.27,1.31C708.92,507.12,709.15,507.19,709.24,507.57Z"/><path class="cls-3" d="M716.17,501.52a11.1,11.1,0,0,1,.58,1.12l-2.64,13a9.76,9.76,0,0,1-1,.8Z"/><path class="cls-3" d="M704.5,508.8l-5.21,7.43c-0.21-.17-0.41-0.34-0.6-0.52l5.39-7.7A2.39,2.39,0,0,0,704.5,508.8Z"/><path class="cls-3" d="M706,504.95a2.33,2.33,0,0,0-.79.25l0-9.21a9.52,9.52,0,0,1,1.16-.05l1.27,9.41a2.3,2.3,0,0,0-.82-0.36h0l-0.81-6Z"/><path class="cls-3" d="M708.9,496.22h0c0.37,0.08.73,0.19,1.08,0.3l3,20c-0.24.17-.48,0.33-0.73,0.48l-2.6-17.34-0.08,18.52a9.56,9.56,0,0,1-1.16.28l-1-9a2.3,2.3,0,0,0,.73-0.55l0.67,5.92Z"/><path class="cls-3" d="M704,496.17l-5.64,19.27a8.81,8.81,0,0,1-.62-0.67l4.53-15.48c-2,4.78-4.32,10.11-5.82,13.66-0.17-.3-0.33-0.61-0.47-0.92,1.75-4.12,4.36-10.24,6.59-15.46A10.9,10.9,0,0,1,704,496.17Z"/><path class="cls-4" d="M678.23,515.36a28.2,28.2,0,1,1,0-6.47A28.92,28.92,0,0,1,678.23,515.36Z"/><path class="cls-5" d="M675.65,515.07a25.63,25.63,0,1,1,0-5.88A26.28,26.28,0,0,1,675.65,515.07Z"/><path class="cls-9" d="M654.85,503a13.71,13.71,0,0,0-4.5-7.28l-2.93,1.07q-3.81,1.36-7.47,2.5l5.92,6.18Z"/><circle class="cls-10" cx="653.77" cy="509.91" r="4.27" transform="translate(-138.41 265.21) rotate(-20.79)"/><circle class="cls-11" cx="653.08" cy="505.29" r="4.27" transform="matrix(0.93, -0.35, 0.35, 0.93, -136.81, 264.66)"/><circle class="cls-11" cx="642.4" cy="501.98" r="4.27" transform="translate(-136.33 260.66) rotate(-20.79)"/><circle class="cls-10" cx="638.93" cy="506.41" r="4.27" transform="translate(-138.13 259.72) rotate(-20.79)"/><circle class="cls-10" cx="643.16" cy="513.28" r="4.27" transform="translate(-140.29 261.66) rotate(-20.79)"/><path class="cls-12" d="M637.66,510.8c-1.44-3.56.5-7,1.07-8a7.85,7.85,0,0,1,10.7-4c1,0.36,4.66,1.7,6.08,5.23,1.83,4.55-.91,10.69-5.54,12.32-3.7,1.3-7.27-.75-8.18-1.28A8.81,8.81,0,0,1,637.66,510.8Z"/><path class="cls-13" d="M641.17,507.93c-1-2.53.35-5,.76-5.72a5.59,5.59,0,0,1,7.62-2.83,7.16,7.16,0,0,1,4.33,3.72,7.06,7.06,0,0,1-3.94,8.77c-2.63.93-5.18-.54-5.83-0.91A6.28,6.28,0,0,1,641.17,507.93Z"/><path class="cls-9" d="M665.51,517a13.71,13.71,0,0,0,2.07-8.3l-2.82-1.35q-3.63-1.78-7-3.61l-0.29,8.55Z"/><circle class="cls-10" cx="659.83" cy="521" r="4.27" transform="translate(-90.91 899.44) rotate(-65.05)"/><circle class="cls-11" cx="662.66" cy="517.29" r="4.27" transform="translate(-85.9 899.86) rotate(-65.05)"/><circle class="cls-11" cx="657.58" cy="507.32" r="4.27" transform="translate(-79.81 889.49) rotate(-65.05)"/><circle class="cls-10" cx="651.99" cy="507.93" r="4.27" transform="translate(-83.59 884.77) rotate(-65.05)"/><circle class="cls-10" cx="650.02" cy="515.76" r="4.27" transform="translate(-91.82 887.51) rotate(-65.05)"/><path class="cls-12" d="M648,510.09c1.55-3.52,5.36-4.53,6.5-4.84a7.85,7.85,0,0,1,10.32,4.89c0.43,1,2,4.53.5,8-2,4.49-8.3,6.81-12.69,4.63C649.07,521,648,517,647.78,516A8.81,8.81,0,0,1,648,510.09Z"/><path class="cls-13" d="M652.46,510.6c1.1-2.5,3.82-3.23,4.63-3.44a5.59,5.59,0,0,1,7.34,3.48,7.16,7.16,0,0,1,.36,5.7,7.06,7.06,0,0,1-9,3.3c-2.5-1.24-3.23-4.08-3.42-4.81A6.28,6.28,0,0,1,652.46,510.6Z"/><path class="cls-9" d="M636.33,520.2a13.71,13.71,0,0,0,1.63,8.4l3.13,0q4,0.08,7.88.31l-3.34-7.87Z"/><circle class="cls-10" cx="639.79" cy="514.16" r="4.27"/><circle class="cls-11" cx="638.79" cy="518.73" r="4.27"/><circle class="cls-11" cx="647.6" cy="525.62" r="4.27"/><circle class="cls-10" cx="652.41" cy="522.7" r="4.27"/><circle class="cls-10" cx="650.9" cy="514.78" r="4.27"/><path class="cls-12" d="M655.16,519c0.08,3.84-3,6.37-3.85,7.13a7.85,7.85,0,0,1-11.42-.08c-0.79-.68-3.76-3.24-3.83-7-0.1-4.9,4.65-9.67,9.55-9.55,3.92,0.09,6.53,3.28,7.2,4.1A8.81,8.81,0,0,1,655.16,519Z"/><path class="cls-13" d="M650.86,520.49c0.06,2.73-2.1,4.54-2.74,5.08a5.59,5.59,0,0,1-8.13-.06,7.16,7.16,0,0,1-2.73-5,7.06,7.06,0,0,1,6.8-6.8c2.79,0.07,4.65,2.34,5.12,2.92A6.28,6.28,0,0,1,650.86,520.49Z"/><path class="cls-4" d="M716.23,561.36a28.2,28.2,0,1,1,0-6.47A28.92,28.92,0,0,1,716.23,561.36Z"/><path class="cls-5" d="M713.65,561.07a25.63,25.63,0,1,1,0-5.88A26.28,26.28,0,0,1,713.65,561.07Z"/><path class="cls-18" d="M668.47,555.36a4.59,4.59,0,0,0,1.92,4.5,1.31,1.31,0,0,0,.78.31,1.33,1.33,0,0,0,.91-0.31c0.13-.32.29-0.66,0.47-1a11.24,11.24,0,0,1,1.78-2.47Z"/><path class="cls-19" d="M669,548.08a8.08,8.08,0,0,0-.84,6.84,4,4,0,0,0,1,1.5,5.1,5.1,0,0,0,4.35,1,1.71,1.71,0,0,0,1.23-.92,9.07,9.07,0,0,1,.88-1.38,9.18,9.18,0,0,1,2.72-2.34Z"/><path class="cls-18" d="M695.86,542.82a4.59,4.59,0,0,1,2.14,4.4,1.31,1.31,0,0,1-.28.8,1.33,1.33,0,0,1-.83.48c-0.33-.11-0.68-0.21-1.06-0.3a11.24,11.24,0,0,0-3-.27Z"/><path class="cls-19" d="M690,538.44a8.08,8.08,0,0,1,5.72,3.85,4,4,0,0,1,.5,1.71,5.1,5.1,0,0,1-2.06,4,1.71,1.71,0,0,1-1.5.33,9.07,9.07,0,0,0-1.62-.23,9.18,9.18,0,0,0-3.55.52Z"/><path class="cls-20" d="M678.46,553.18a2.85,2.85,0,0,1-1,.4,8.25,8.25,0,0,1-5.46-1,8.16,8.16,0,0,1-3.18-3.46,2.93,2.93,0,0,1-.17-2.15,15.15,15.15,0,0,1,7.1-9c5.9-3.2,11.79-1,13.73-.13a3,3,0,0,1,1.18,1,7.39,7.39,0,0,1,.24,8.3,3,3,0,0,1-1.69,1.28A43.17,43.17,0,0,0,678.46,553.18Z"/><path class="cls-19" d="M667.76,551.05"/><path class="cls-18" d="M672.59,567.6a4.59,4.59,0,0,0,1.92,4.5,1.31,1.31,0,0,0,.78.31,1.33,1.33,0,0,0,.91-0.31c0.13-.32.29-0.66,0.47-1a11.24,11.24,0,0,1,1.78-2.47Z"/><path class="cls-19" d="M673.1,560.31a8.08,8.08,0,0,0-.84,6.84,4,4,0,0,0,1,1.5,5.1,5.1,0,0,0,4.35,1,1.71,1.71,0,0,0,1.23-.92,9.07,9.07,0,0,1,.88-1.38,9.18,9.18,0,0,1,2.72-2.34Z"/><path class="cls-18" d="M700,555a4.59,4.59,0,0,1,2.14,4.4,1.31,1.31,0,0,1-.28.8,1.33,1.33,0,0,1-.83.48c-0.33-.11-0.68-0.21-1.06-0.3a11.24,11.24,0,0,0-3-.27Z"/><path class="cls-19" d="M694.14,550.67a8.08,8.08,0,0,1,5.72,3.85,4,4,0,0,1,.5,1.71,5.1,5.1,0,0,1-2.06,4,1.71,1.71,0,0,1-1.5.33,9.07,9.07,0,0,0-1.62-.23,9.18,9.18,0,0,0-3.55.52Z"/><path class="cls-20" d="M682.57,565.41a2.85,2.85,0,0,1-1,.4,8.25,8.25,0,0,1-5.46-1,8.16,8.16,0,0,1-3.18-3.46,2.93,2.93,0,0,1-.17-2.15,15.15,15.15,0,0,1,7.1-9c5.9-3.2,11.79-1,13.73-.13a3,3,0,0,1,1.18,1,7.39,7.39,0,0,1,.24,8.3,3,3,0,0,1-1.69,1.28A43.17,43.17,0,0,0,682.57,565.41Z"/><path class="cls-19" d="M671.88,563.28"/><path class="cls-18" d="M679,561.31a4.59,4.59,0,0,0,1.28,4.72,1.31,1.31,0,0,0,.73.42,1.33,1.33,0,0,0,.94-0.18c0.17-.3.37-0.61,0.6-0.93a11.24,11.24,0,0,1,2.11-2.2Z"/><path class="cls-19" d="M680.48,554.17a8.08,8.08,0,0,0-1.79,6.66,4,4,0,0,0,.75,1.62,5.1,5.1,0,0,0,4.17,1.64,1.71,1.71,0,0,0,1.35-.74,9.07,9.07,0,0,1,1.07-1.24,9.18,9.18,0,0,1,3-1.94Z"/><path class="cls-18" d="M707.82,552.69a4.59,4.59,0,0,1,1.51,4.65,1.31,1.31,0,0,1-.38.75,1.33,1.33,0,0,1-.89.36c-0.31-.16-0.65-0.31-1-0.45a11.24,11.24,0,0,0-3-.69Z"/><path class="cls-19" d="M702.65,547.54a8.08,8.08,0,0,1,5.13,4.6,4,4,0,0,1,.26,1.77,5.1,5.1,0,0,1-2.59,3.65,1.71,1.71,0,0,1-1.53.12,9.07,9.07,0,0,0-1.57-.46,9.18,9.18,0,0,0-3.59,0Z"/><path class="cls-20" d="M689.15,560.53a2.85,2.85,0,0,1-1.09.25,8.25,8.25,0,0,1-5.27-1.74,8.16,8.16,0,0,1-2.67-3.87,2.93,2.93,0,0,1,.13-2.15,15.15,15.15,0,0,1,8.28-7.88c6.29-2.35,11.81.61,13.62,1.77a3,3,0,0,1,1,1.14,7.39,7.39,0,0,1-.91,8.26,3,3,0,0,1-1.85,1A43.17,43.17,0,0,0,689.15,560.53Z"/><path class="cls-19" d="M678.86,556.94"/><path class="cls-18" d="M681.14,575a4.59,4.59,0,0,0,1.92,4.5,1.31,1.31,0,0,0,.78.31,1.33,1.33,0,0,0,.91-0.31c0.13-.32.29-0.66,0.47-1A11.24,11.24,0,0,1,687,576Z"/><path class="cls-19" d="M681.65,567.71a8.08,8.08,0,0,0-.84,6.84,4,4,0,0,0,1,1.5,5.1,5.1,0,0,0,4.35,1,1.71,1.71,0,0,0,1.23-.92,9.07,9.07,0,0,1,.88-1.38,9.18,9.18,0,0,1,2.72-2.34Z"/><path class="cls-18" d="M708.53,562.45a4.59,4.59,0,0,1,2.14,4.4,1.31,1.31,0,0,1-.28.8,1.33,1.33,0,0,1-.83.48c-0.33-.11-0.68-0.21-1.06-0.3a11.24,11.24,0,0,0-3-.27Z"/><path class="cls-19" d="M702.7,558.06a8.08,8.08,0,0,1,5.72,3.85,4,4,0,0,1,.5,1.71,5.1,5.1,0,0,1-2.06,4,1.71,1.71,0,0,1-1.5.33,9.07,9.07,0,0,0-1.62-.23,9.18,9.18,0,0,0-3.55.52Z"/><path class="cls-20" d="M691.13,572.81a2.85,2.85,0,0,1-1,.4,8.25,8.25,0,0,1-5.46-1,8.16,8.16,0,0,1-3.18-3.46,2.93,2.93,0,0,1-.17-2.15,15.15,15.15,0,0,1,7.1-9c5.9-3.2,11.79-1,13.73-.13a3,3,0,0,1,1.18,1,7.39,7.39,0,0,1,.24,8.3,3,3,0,0,1-1.69,1.28A43.17,43.17,0,0,0,691.13,572.81Z"/><path class="cls-19" d="M680.44,570.68"/><path class="cls-4" d="M1065.23,236.36a28.2,28.2,0,1,1,0-6.47A28.92,28.92,0,0,1,1065.23,236.36Z"/><path class="cls-5" d="M1062.65,236.07a25.63,25.63,0,1,1,0-5.88A26.28,26.28,0,0,1,1062.65,236.07Z"/><path class="cls-18" d="M1017.47,230.36a4.59,4.59,0,0,0,1.92,4.5,1.31,1.31,0,0,0,.78.31,1.33,1.33,0,0,0,.91-0.31c0.13-.32.29-0.66,0.47-1a11.24,11.24,0,0,1,1.78-2.47Z"/><path class="cls-19" d="M1018,223.08a8.08,8.08,0,0,0-.84,6.84,4,4,0,0,0,1,1.5,5.1,5.1,0,0,0,4.35,1,1.71,1.71,0,0,0,1.23-.92,9.07,9.07,0,0,1,.88-1.38,9.18,9.18,0,0,1,2.72-2.34Z"/><path class="cls-18" d="M1044.86,217.82a4.59,4.59,0,0,1,2.14,4.4,1.31,1.31,0,0,1-.28.8,1.33,1.33,0,0,1-.83.48c-0.33-.11-0.68-0.21-1.06-0.3a11.24,11.24,0,0,0-3-.27Z"/><path class="cls-19" d="M1039,213.44a8.08,8.08,0,0,1,5.72,3.85,4,4,0,0,1,.5,1.71,5.1,5.1,0,0,1-2.06,4,1.71,1.71,0,0,1-1.5.33,9.07,9.07,0,0,0-1.62-.23,9.18,9.18,0,0,0-3.55.52Z"/><path class="cls-20" d="M1027.46,228.18a2.85,2.85,0,0,1-1,.4,8.25,8.25,0,0,1-5.46-1,8.16,8.16,0,0,1-3.18-3.46,2.93,2.93,0,0,1-.17-2.15,15.15,15.15,0,0,1,7.1-9c5.9-3.2,11.79-1,13.73-.13a3,3,0,0,1,1.18,1,7.39,7.39,0,0,1,.24,8.3,3,3,0,0,1-1.69,1.28A43.17,43.17,0,0,0,1027.46,228.18Z"/><path class="cls-19" d="M1016.76,226.05"/><path class="cls-18" d="M1021.59,242.6a4.59,4.59,0,0,0,1.92,4.5,1.31,1.31,0,0,0,.78.31,1.33,1.33,0,0,0,.91-0.31c0.13-.32.29-0.66,0.47-1a11.24,11.24,0,0,1,1.78-2.47Z"/><path class="cls-19" d="M1022.1,235.31a8.08,8.08,0,0,0-.84,6.84,4,4,0,0,0,1,1.5,5.1,5.1,0,0,0,4.35,1,1.71,1.71,0,0,0,1.23-.92,9.07,9.07,0,0,1,.88-1.38,9.18,9.18,0,0,1,2.72-2.34Z"/><path class="cls-18" d="M1049,230a4.59,4.59,0,0,1,2.14,4.4,1.31,1.31,0,0,1-.28.8,1.33,1.33,0,0,1-.83.48c-0.33-.11-0.68-0.21-1.06-0.3a11.24,11.24,0,0,0-3-.27Z"/><path class="cls-19" d="M1043.14,225.67a8.08,8.08,0,0,1,5.72,3.85,4,4,0,0,1,.5,1.71,5.1,5.1,0,0,1-2.06,4,1.71,1.71,0,0,1-1.5.33,9.07,9.07,0,0,0-1.62-.23,9.18,9.18,0,0,0-3.55.52Z"/><path class="cls-20" d="M1031.57,240.41a2.85,2.85,0,0,1-1,.4,8.25,8.25,0,0,1-5.46-1,8.16,8.16,0,0,1-3.18-3.46,2.93,2.93,0,0,1-.17-2.15,15.15,15.15,0,0,1,7.1-9c5.9-3.2,11.79-1,13.73-.13a3,3,0,0,1,1.18,1,7.39,7.39,0,0,1,.24,8.3,3,3,0,0,1-1.69,1.28A43.17,43.17,0,0,0,1031.57,240.41Z"/><path class="cls-19" d="M1020.88,238.28"/><path class="cls-18" d="M1028,236.31a4.59,4.59,0,0,0,1.28,4.72,1.31,1.31,0,0,0,.73.42,1.33,1.33,0,0,0,.94-0.18c0.17-.3.37-0.61,0.6-0.93a11.24,11.24,0,0,1,2.11-2.2Z"/><path class="cls-19" d="M1029.48,229.17a8.08,8.08,0,0,0-1.79,6.66,4,4,0,0,0,.75,1.62,5.1,5.1,0,0,0,4.17,1.64,1.71,1.71,0,0,0,1.35-.74,9.07,9.07,0,0,1,1.07-1.24,9.18,9.18,0,0,1,3-1.94Z"/><path class="cls-18" d="M1056.82,227.69a4.59,4.59,0,0,1,1.51,4.65,1.31,1.31,0,0,1-.38.75,1.33,1.33,0,0,1-.89.36c-0.31-.16-0.65-0.31-1-0.45a11.24,11.24,0,0,0-3-.69Z"/><path class="cls-19" d="M1051.65,222.54a8.08,8.08,0,0,1,5.13,4.6,4,4,0,0,1,.26,1.77,5.1,5.1,0,0,1-2.59,3.65,1.71,1.71,0,0,1-1.53.12,9.07,9.07,0,0,0-1.57-.46,9.18,9.18,0,0,0-3.59,0Z"/><path class="cls-20" d="M1038.15,235.53a2.85,2.85,0,0,1-1.09.25,8.25,8.25,0,0,1-5.27-1.74,8.16,8.16,0,0,1-2.67-3.87,2.93,2.93,0,0,1,.13-2.15,15.15,15.15,0,0,1,8.28-7.88c6.29-2.35,11.81.61,13.62,1.77a3,3,0,0,1,1,1.14,7.39,7.39,0,0,1-.91,8.26,3,3,0,0,1-1.85,1A43.17,43.17,0,0,0,1038.15,235.53Z"/><path class="cls-19" d="M1027.86,231.94"/><path class="cls-18" d="M1030.14,250a4.59,4.59,0,0,0,1.92,4.5,1.31,1.31,0,0,0,.78.31,1.33,1.33,0,0,0,.91-0.31c0.13-.32.29-0.66,0.47-1A11.24,11.24,0,0,1,1036,251Z"/><path class="cls-19" d="M1030.65,242.71a8.08,8.08,0,0,0-.84,6.84,4,4,0,0,0,1,1.5,5.1,5.1,0,0,0,4.35,1,1.71,1.71,0,0,0,1.23-.92,9.07,9.07,0,0,1,.88-1.38,9.18,9.18,0,0,1,2.72-2.34Z"/><path class="cls-18" d="M1057.53,237.45a4.59,4.59,0,0,1,2.14,4.4,1.31,1.31,0,0,1-.28.8,1.33,1.33,0,0,1-.83.48c-0.33-.11-0.68-0.21-1.06-0.3a11.24,11.24,0,0,0-3-.27Z"/><path class="cls-19" d="M1051.7,233.06a8.08,8.08,0,0,1,5.72,3.85,4,4,0,0,1,.5,1.71,5.1,5.1,0,0,1-2.06,4,1.71,1.71,0,0,1-1.5.33,9.07,9.07,0,0,0-1.62-.23,9.18,9.18,0,0,0-3.55.52Z"/><path class="cls-20" d="M1040.13,247.81a2.85,2.85,0,0,1-1,.4,8.25,8.25,0,0,1-5.46-1,8.16,8.16,0,0,1-3.18-3.46,2.93,2.93,0,0,1-.17-2.15,15.15,15.15,0,0,1,7.1-9c5.9-3.2,11.79-1,13.73-.13a3,3,0,0,1,1.18,1,7.39,7.39,0,0,1,.24,8.3,3,3,0,0,1-1.69,1.28A43.17,43.17,0,0,0,1040.13,247.81Z"/><path class="cls-19" d="M1029.44,245.68"/><path class="cls-4" d="M617.55,513.28a18.54,18.54,0,1,1,0-4.26A19,19,0,0,1,617.55,513.28Z"/><path class="cls-5" d="M615.86,513.09a16.85,16.85,0,1,1,0-3.87A17.28,17.28,0,0,1,615.86,513.09Z"/><path class="cls-18" d="M584.57,518.8a4.59,4.59,0,0,0,1.92,4.5,1.31,1.31,0,0,0,.78.31,1.33,1.33,0,0,0,.91-0.31c0.13-.32.29-0.66,0.47-1a11.24,11.24,0,0,1,1.78-2.47Z"/><path class="cls-19" d="M585.08,511.52a8.08,8.08,0,0,0-.84,6.84,4,4,0,0,0,1,1.5,5.1,5.1,0,0,0,4.35,1,1.71,1.71,0,0,0,1.23-.92,9.07,9.07,0,0,1,.88-1.38,9.18,9.18,0,0,1,2.72-2.34Z"/><path class="cls-18" d="M612,506.25a4.59,4.59,0,0,1,2.14,4.4,1.31,1.31,0,0,1-.28.8,1.33,1.33,0,0,1-.83.48c-0.33-.11-0.68-0.21-1.06-0.3a11.24,11.24,0,0,0-3-.27Z"/><path class="cls-19" d="M606.12,501.87a8.08,8.08,0,0,1,5.72,3.85,4,4,0,0,1,.5,1.71,5.1,5.1,0,0,1-2.06,4,1.71,1.71,0,0,1-1.5.33,9.07,9.07,0,0,0-1.62-.23,9.18,9.18,0,0,0-3.55.52Z"/><path class="cls-20" d="M594.56,516.61a2.85,2.85,0,0,1-1,.4,8.25,8.25,0,0,1-5.46-1,8.16,8.16,0,0,1-3.18-3.46,2.93,2.93,0,0,1-.17-2.15,15.15,15.15,0,0,1,7.1-9c5.9-3.2,11.79-1,13.73-.13a3,3,0,0,1,1.18,1,7.39,7.39,0,0,1,.24,8.3,3,3,0,0,1-1.69,1.28A43.17,43.17,0,0,0,594.56,516.61Z"/><path class="cls-19" d="M583.86,514.48"/><path class="cls-4" d="M961.21,215.46a18.54,18.54,0,1,1,3.73,2A19,19,0,0,1,961.21,215.46Z"/><path class="cls-5" d="M962.19,214.07a16.85,16.85,0,1,1,3.39,1.86A17.28,17.28,0,0,1,962.19,214.07Z"/><path class="cls-18" d="M972.26,183.9a4.59,4.59,0,0,0-4.87-.49,1.31,1.31,0,0,0-.65.53,1.33,1.33,0,0,0-.16.94c0.22,0.27.44,0.57,0.65,0.89a11.24,11.24,0,0,1,1.31,2.75Z"/><path class="cls-19" d="M978.39,187.85a8.08,8.08,0,0,0-5.59-4,4,4,0,0,0-1.78.13,5.1,5.1,0,0,0-3,3.31,1.71,1.71,0,0,0,.21,1.52,9.07,9.07,0,0,1,.78,1.44,9.18,9.18,0,0,1,.74,3.51Z"/><path class="cls-18" d="M970.06,213.94a4.59,4.59,0,0,1-4.89-.24,1.31,1.31,0,0,1-.56-0.62,1.33,1.33,0,0,1,0-1c0.25-.23.52-0.5,0.78-0.79a11.24,11.24,0,0,0,1.7-2.53Z"/><path class="cls-19" d="M976.71,210.94a8.08,8.08,0,0,1-6.13,3.16,4,4,0,0,1-1.74-.39,5.1,5.1,0,0,1-2.49-3.72,1.71,1.71,0,0,1,.44-1.47,9.07,9.07,0,0,0,1-1.3,9.18,9.18,0,0,0,1.26-3.36Z"/><path class="cls-20" d="M969.36,193.7a2.85,2.85,0,0,1,.15-1.11,8.25,8.25,0,0,1,3.5-4.31,8.16,8.16,0,0,1,4.57-1.12,2.93,2.93,0,0,1,2,.88A15.15,15.15,0,0,1,984,198.59c0,6.71-4.77,10.82-6.5,12.1a3,3,0,0,1-1.43.56,7.39,7.39,0,0,1-7.4-3.79,3,3,0,0,1-.31-2.1A43.17,43.17,0,0,0,969.36,193.7Z"/><path class="cls-19" d="M976.38,185.35"/><path class="cls-4" d="M237.94,239a18.54,18.54,0,1,1,3.32-2.66A19,19,0,0,1,237.94,239Z"/><path class="cls-5" d="M237,237.56a16.85,16.85,0,1,1,3-2.41A17.28,17.28,0,0,1,237,237.56Z"/><path class="cls-18" d="M213,216.68a4.59,4.59,0,0,0-2.32,4.31,1.31,1.31,0,0,0,.24.81,1.33,1.33,0,0,0,.81.51c0.33-.1.69-0.19,1.07-0.26a11.24,11.24,0,0,1,3-.15Z"/><path class="cls-19" d="M219.05,212.53a8.08,8.08,0,0,0-5.87,3.61,4,4,0,0,0-.57,1.69,5.1,5.1,0,0,0,1.9,4.06,1.71,1.71,0,0,0,1.49.39,9.07,9.07,0,0,1,1.63-.17,9.18,9.18,0,0,1,3.53.66Z"/><path class="cls-18" d="M239.94,230.25a4.59,4.59,0,0,1-2.1,4.42,1.31,1.31,0,0,1-.79.28,1.33,1.33,0,0,1-.89-0.35c-0.12-.33-0.26-0.67-0.43-1A11.24,11.24,0,0,0,234,231Z"/><path class="cls-19" d="M239.72,223a8.08,8.08,0,0,1,.57,6.87,4,4,0,0,1-1,1.46,5.1,5.1,0,0,1-4.39.87,1.71,1.71,0,0,1-1.19-1,9.07,9.07,0,0,0-.83-1.41,9.18,9.18,0,0,0-2.62-2.45Z"/><path class="cls-20" d="M221,223.12a2.85,2.85,0,0,1-1-.57,8.25,8.25,0,0,1-2.63-4.89,8.16,8.16,0,0,1,.72-4.65,2.93,2.93,0,0,1,1.57-1.47,15.15,15.15,0,0,1,11.43,0c6.18,2.61,8.16,8.57,8.67,10.64a3,3,0,0,1,0,1.54,7.39,7.39,0,0,1-6.34,5.37,3,3,0,0,1-2.06-.52A43.17,43.17,0,0,0,221,223.12Z"/><path class="cls-19" d="M216,213.43"/><path class="cls-4" d="M686.9,142.5a18.54,18.54,0,1,1,.74-4.19A19,19,0,0,1,686.9,142.5Z"/><path class="cls-5" d="M685.26,142a16.85,16.85,0,1,1,.68-3.81A17.28,17.28,0,0,1,685.26,142Z"/><path class="cls-14" d="M680.4,134.4a9.93,9.93,0,0,0-.33-1.17,10.17,10.17,0,0,0-.48-1.23,11.37,11.37,0,0,0-.74-1.36,11.87,11.87,0,0,0-17.26-3.09c-0.28.22-.56,0.45-0.82,0.69a11.51,11.51,0,0,0-1.55,1.74,9.19,9.19,0,0,0-.54.79c-0.07.12-.14,0.23-0.21,0.35s-0.27.48-.39,0.73a11.88,11.88,0,0,0-.18,9.84,10,10,0,0,0,.55,1.11,11.82,11.82,0,0,0,1.83,2.44c0.21,0.22.43,0.43,0.66,0.63l0.13,0.11a10.18,10.18,0,0,0,1,.79,11.86,11.86,0,0,0,13.86-.35,11.58,11.58,0,0,0,1-.85,11.82,11.82,0,0,0,3.64-7.44c0-.39.06-0.77,0.06-1.17v0A11.65,11.65,0,0,0,680.4,134.4ZM666.31,137a2.5,2.5,0,0,1,4.39-1.63,2.54,2.54,0,0,1,.61,1.6v0a2.4,2.4,0,0,1-.18.91,2.48,2.48,0,0,1-2.32,1.59,2.51,2.51,0,0,1-1.21-.31,2.4,2.4,0,0,1-.73-0.62A2.44,2.44,0,0,1,666.31,137Z"/><path class="cls-17" d="M675.61,129.11c-1.51-.5-2,0.3-4-0.27-2.09-.62-2.18-1.78-3.71-2.27-3.12-1-8.15,2-8.65,5.21-0.19,1.21.3,2.24-.35,4.26a7.72,7.72,0,0,0-.6,2c-0.09,1.07.29,1.92,1.08,3.4,1.4,2.61,2.1,3.91,2.68,4.39,1.39,1.17,2.88,1.42,5.08,1.79,1.79,0.3,2.9.49,4.19,0s1.12-.93,3-2,2.36-.8,3-1.58c0.84-1,.41-1.85.89-4.19,0.55-2.68,1.33-2.56,1.44-4.18C679.84,133,678,129.91,675.61,129.11ZM669.22,140c-1.14.6-3.45-.61-3.57-1.82a6.76,6.76,0,0,1,.38-1.27c0.23-1.14-.19-1.54.1-2s1.37-.49,2.68-0.4,2.2,0.16,2.64.81a3.26,3.26,0,0,1,.27,1.65,2.26,2.26,0,0,1-.24,1.65,5.49,5.49,0,0,1-1.27.58C669.6,139.51,669.59,139.76,669.22,140Z"/><path class="cls-3" d="M677,145.58a11.58,11.58,0,0,1-1,.85l-13.86.35a10.18,10.18,0,0,1-1-.79Z"/><path class="cls-3" d="M666.86,135.41l-8.77-3.56c0.12-.25.25-0.49,0.39-0.73l9.09,3.69A2.49,2.49,0,0,0,666.86,135.41Z"/><path class="cls-3" d="M671.14,136.09a2.43,2.43,0,0,0-.44-0.75l9.37-2.11a9.93,9.93,0,0,1,.33,1.17l-9.27,3.49a2.4,2.4,0,0,0,.18-0.91v0l5.88-2.22Z"/><path class="cls-3" d="M680.68,137v0c0,0.4,0,.78-0.06,1.17L661,145.88c-0.23-.2-0.44-0.41-0.66-0.63l17-6.69-18.85,4.25a10,10,0,0,1-.55-1.11l9-3.15a2.4,2.4,0,0,0,.73.62l-5.86,2.06Z"/><path class="cls-3" d="M679.59,132l-20.91-1.23a9.19,9.19,0,0,1,.54-0.79L676,131l-15.24-2.73c0.26-.24.54-0.47,0.82-0.69l17.26,3.09A11.37,11.37,0,0,1,679.59,132Z"/><path class="cls-4" d="M1100.9,184.5a18.54,18.54,0,1,1,.74-4.19A19,19,0,0,1,1100.9,184.5Z"/><path class="cls-5" d="M1099.26,184a16.85,16.85,0,1,1,.68-3.81A17.28,17.28,0,0,1,1099.26,184Z"/><path class="cls-14" d="M1094.4,176.4a9.93,9.93,0,0,0-.33-1.17,10.17,10.17,0,0,0-.48-1.23,11.37,11.37,0,0,0-.74-1.36,11.87,11.87,0,0,0-17.26-3.09c-0.28.22-.56,0.45-0.82,0.69a11.51,11.51,0,0,0-1.55,1.74,9.19,9.19,0,0,0-.54.79c-0.07.12-.14,0.23-0.21,0.35s-0.27.48-.39,0.73a11.88,11.88,0,0,0-.18,9.84,10,10,0,0,0,.55,1.11,11.82,11.82,0,0,0,1.83,2.44c0.21,0.22.43,0.43,0.66,0.63l0.13,0.11a10.18,10.18,0,0,0,1,.79,11.86,11.86,0,0,0,13.86-.35,11.58,11.58,0,0,0,1-.85,11.82,11.82,0,0,0,3.64-7.44c0-.39.06-0.77,0.06-1.17v0A11.65,11.65,0,0,0,1094.4,176.4ZM1080.31,179a2.5,2.5,0,0,1,4.39-1.63,2.54,2.54,0,0,1,.61,1.6v0a2.4,2.4,0,0,1-.18.91,2.48,2.48,0,0,1-2.32,1.59,2.51,2.51,0,0,1-1.21-.31,2.4,2.4,0,0,1-.73-0.62A2.44,2.44,0,0,1,1080.31,179Z"/><path class="cls-17" d="M1089.61,171.11c-1.51-.5-2,0.3-4-0.27-2.09-.62-2.18-1.78-3.71-2.27-3.12-1-8.15,2-8.65,5.21-0.19,1.21.3,2.24-.35,4.26a7.72,7.72,0,0,0-.6,2c-0.09,1.07.29,1.92,1.08,3.4,1.4,2.61,2.1,3.91,2.68,4.39,1.39,1.17,2.88,1.42,5.08,1.79,1.79,0.3,2.9.49,4.19,0s1.12-.93,3-2,2.36-.8,3-1.58c0.84-1,.41-1.85.89-4.19,0.55-2.68,1.33-2.56,1.44-4.18C1093.84,175,1092,171.91,1089.61,171.11ZM1083.22,182c-1.14.6-3.45-.61-3.57-1.82a6.76,6.76,0,0,1,.38-1.27c0.23-1.14-.19-1.54.1-2s1.37-.49,2.68-0.4,2.2,0.16,2.64.81a3.26,3.26,0,0,1,.27,1.65,2.26,2.26,0,0,1-.24,1.65,5.49,5.49,0,0,1-1.27.58C1083.6,181.51,1083.59,181.76,1083.22,182Z"/><path class="cls-3" d="M1091,187.58a11.58,11.58,0,0,1-1,.85l-13.86.35a10.18,10.18,0,0,1-1-.79Z"/><path class="cls-3" d="M1080.86,177.41l-8.77-3.56c0.12-.25.25-0.49,0.39-0.73l9.09,3.69A2.49,2.49,0,0,0,1080.86,177.41Z"/><path class="cls-3" d="M1085.14,178.09a2.43,2.43,0,0,0-.44-0.75l9.37-2.11a9.93,9.93,0,0,1,.33,1.17l-9.27,3.49a2.4,2.4,0,0,0,.18-0.91v0l5.88-2.22Z"/><path class="cls-3" d="M1094.68,179v0c0,0.4,0,.78-0.06,1.17L1075,187.88c-0.23-.2-0.44-0.41-0.66-0.63l17-6.69-18.85,4.25a10,10,0,0,1-.55-1.11l9-3.15a2.4,2.4,0,0,0,.73.62l-5.86,2.06Z"/><path class="cls-3" d="M1093.59,174l-20.91-1.23a9.19,9.19,0,0,1,.54-0.79l16.79,1-15.24-2.73c0.26-.24.54-0.47,0.82-0.69l17.26,3.09A11.37,11.37,0,0,1,1093.59,174Z"/><path class="cls-4" d="M1065.9,522.5a18.54,18.54,0,1,1,.74-4.19A19,19,0,0,1,1065.9,522.5Z"/><path class="cls-5" d="M1064.26,522a16.85,16.85,0,1,1,.68-3.81A17.28,17.28,0,0,1,1064.26,522Z"/><path class="cls-14" d="M1059.4,514.4a9.93,9.93,0,0,0-.33-1.17,10.17,10.17,0,0,0-.48-1.23,11.37,11.37,0,0,0-.74-1.36,11.87,11.87,0,0,0-17.26-3.09c-0.28.22-.56,0.45-0.82,0.69a11.51,11.51,0,0,0-1.55,1.74,9.19,9.19,0,0,0-.54.79c-0.07.12-.14,0.23-0.21,0.35s-0.27.48-.39,0.73a11.88,11.88,0,0,0-.18,9.84,10,10,0,0,0,.55,1.11,11.82,11.82,0,0,0,1.83,2.44c0.21,0.22.43,0.43,0.66,0.63l0.13,0.11a10.18,10.18,0,0,0,1,.79,11.86,11.86,0,0,0,13.86-.35,11.58,11.58,0,0,0,1-.85,11.82,11.82,0,0,0,3.64-7.44c0-.39.06-0.77,0.06-1.17v0A11.65,11.65,0,0,0,1059.4,514.4ZM1045.31,517a2.5,2.5,0,0,1,4.39-1.63,2.54,2.54,0,0,1,.61,1.6v0a2.4,2.4,0,0,1-.18.91,2.48,2.48,0,0,1-2.32,1.59,2.51,2.51,0,0,1-1.21-.31,2.4,2.4,0,0,1-.73-0.62A2.44,2.44,0,0,1,1045.31,517Z"/><path class="cls-17" d="M1054.61,509.11c-1.51-.5-2,0.3-4-0.27-2.09-.62-2.18-1.78-3.71-2.27-3.12-1-8.15,2-8.65,5.21-0.19,1.21.3,2.24-.35,4.26a7.72,7.72,0,0,0-.6,2c-0.09,1.07.29,1.92,1.08,3.4,1.4,2.61,2.1,3.91,2.68,4.39,1.39,1.17,2.88,1.42,5.08,1.79,1.79,0.3,2.9.49,4.19,0s1.12-.93,3-2,2.36-.8,3-1.58c0.84-1,.41-1.85.89-4.19,0.55-2.68,1.33-2.56,1.44-4.18C1058.84,513,1057,509.91,1054.61,509.11ZM1048.22,520c-1.14.6-3.45-.61-3.57-1.82a6.76,6.76,0,0,1,.38-1.27c0.23-1.14-.19-1.54.1-2s1.37-.49,2.68-0.4,2.2,0.16,2.64.81a3.26,3.26,0,0,1,.27,1.65,2.26,2.26,0,0,1-.24,1.65,5.49,5.49,0,0,1-1.27.58C1048.6,519.51,1048.59,519.76,1048.22,520Z"/><path class="cls-3" d="M1056,525.58a11.58,11.58,0,0,1-1,.85l-13.86.35a10.18,10.18,0,0,1-1-.79Z"/><path class="cls-3" d="M1045.86,515.41l-8.77-3.56c0.12-.25.25-0.49,0.39-0.73l9.09,3.69A2.49,2.49,0,0,0,1045.86,515.41Z"/><path class="cls-3" d="M1050.14,516.09a2.43,2.43,0,0,0-.44-0.75l9.37-2.11a9.93,9.93,0,0,1,.33,1.17l-9.27,3.49a2.4,2.4,0,0,0,.18-0.91v0l5.88-2.22Z"/><path class="cls-3" d="M1059.68,517v0c0,0.4,0,.78-0.06,1.17L1040,525.88c-0.23-.2-0.44-0.41-0.66-0.63l17-6.69-18.85,4.25a10,10,0,0,1-.55-1.11l9-3.15a2.4,2.4,0,0,0,.73.62l-5.86,2.06Z"/><path class="cls-3" d="M1058.59,512l-20.91-1.23a9.19,9.19,0,0,1,.54-0.79l16.79,1-15.24-2.73c0.26-.24.54-0.47,0.82-0.69l17.26,3.09A11.37,11.37,0,0,1,1058.59,512Z"/><path class="cls-4" d="M357.36,211.6a28.2,28.2,0,1,1,3.15-5.65A28.92,28.92,0,0,1,357.36,211.6Z"/><path class="cls-5" d="M355.25,210.09a25.63,25.63,0,1,1,2.86-5.14A26.28,26.28,0,0,1,355.25,210.09Z"/><path class="cls-14" d="M346.12,185.68a9.89,9.89,0,0,0-1.18-.24,10.13,10.13,0,0,0-1.31-.13,11.33,11.33,0,0,0-1.54,0,11.82,11.82,0,0,0-10.59,13.89c0.06,0.35.14,0.7,0.24,1a11.47,11.47,0,0,0,.84,2.16,9.16,9.16,0,0,0,.46.83c0.07,0.12.14,0.23,0.22,0.34s0.31,0.46.47,0.68a11.83,11.83,0,0,0,8.64,4.63,9.94,9.94,0,0,0,1.24,0,11.78,11.78,0,0,0,3-.51c0.29-.09.58-0.19,0.86-0.3l0.16-.07a10.15,10.15,0,0,0,1.18-.56,11.81,11.81,0,0,0,6-12.45,11.54,11.54,0,0,0-.3-1.27,11.77,11.77,0,0,0-4.94-6.61c-0.33-.21-0.66-0.4-1-0.58h0A11.6,11.6,0,0,0,346.12,185.68ZM342,199.35a2.49,2.49,0,0,1,.55-4.63,2.53,2.53,0,0,1,1.69.19h0a2.39,2.39,0,0,1,.73.57,2.48,2.48,0,0,1,.35,2.78,2.5,2.5,0,0,1-.83.93,2.39,2.39,0,0,1-.88.37A2.43,2.43,0,0,1,342,199.35Z"/><path class="cls-16" d="M339.25,187.53c-1.13,1.11-.66,1.95-2.05,3.4s-2.56,1.12-3.69,2.26c-2.31,2.31-1.89,8.15.69,10,1,0.72,2.13.75,3.62,2.24a7.69,7.69,0,0,0,1.46,1.42c0.91,0.57,1.84.62,3.51,0.59,2.95-.06,4.43-0.09,5.11-0.38,1.67-.7,2.57-1.91,3.89-3.69,1.08-1.45,1.75-2.35,1.9-3.71s-0.31-1.41-.42-3.52,0.36-2.46,0-3.39c-0.5-1.2-1.45-1.21-3.31-2.7-2.13-1.71-1.67-2.34-3.05-3.18C344.63,185.55,341.05,185.76,339.25,187.53ZM346,198.12c0,1.29-2.11,2.79-3.24,2.34a6.73,6.73,0,0,1-1-.91c-0.91-.72-1.45-0.53-1.72-1s0.19-1.44.86-2.55,1.14-1.88,1.92-2a3.24,3.24,0,0,1,1.59.51,2.25,2.25,0,0,1,1.35,1,5.46,5.46,0,0,1-.06,1.39C345.74,197.59,346,197.71,346,198.12Z"/><path class="cls-3" d="M354.48,193.8a11.54,11.54,0,0,1,.3,1.27l-6,12.45a10.15,10.15,0,0,1-1.18.56Z"/><path class="cls-3" d="M340.86,198.15l-7.14,6.16c-0.17-.22-0.33-0.44-0.47-0.68l7.4-6.38A2.48,2.48,0,0,0,340.86,198.15Z"/><path class="cls-3" d="M343.41,194.66a2.42,2.42,0,0,0-.86.05l2.39-9.27a9.89,9.89,0,0,1,1.18.24L345,195.49a2.39,2.39,0,0,0-.73-0.57h0l0.71-6.22Z"/><path class="cls-3" d="M348.51,186.59h0c0.35,0.18.68,0.37,1,.58l-2.09,21c-0.28.11-.56,0.21-0.86,0.3l1.81-18.13-4.81,18.64a9.94,9.94,0,0,1-1.24,0l1.28-9.37a2.39,2.39,0,0,0,.88-0.37l-0.84,6.14Z"/><path class="cls-3" d="M343.63,185.31l-10.6,18a9.16,9.16,0,0,1-.46-0.83L341.08,188c-3.28,4.3-6.93,9.08-9.35,12.27-0.1-.34-0.17-0.69-0.24-1,2.81-3.71,7-9.21,10.59-13.89A11.33,11.33,0,0,1,343.63,185.31Z"/><path class="cls-14" d="M342.86,191.08a9.93,9.93,0,0,0,.28-1.18,10.17,10.17,0,0,0,.18-1.31,11.37,11.37,0,0,0,0-1.55,11.87,11.87,0,0,0-13.56-11.11c-0.35.05-.71,0.12-1.06,0.2a11.51,11.51,0,0,0-2.2.76,9.19,9.19,0,0,0-.85.43l-0.35.21c-0.24.14-.47,0.29-0.7,0.45a11.88,11.88,0,0,0-5,8.51,10,10,0,0,0-.06,1.24,11.82,11.82,0,0,0,.41,3c0.08,0.3.17,0.58,0.27,0.87a1.7,1.7,0,0,0,.06.16,10.18,10.18,0,0,0,.52,1.2,11.86,11.86,0,0,0,12.27,6.45,11.58,11.58,0,0,0,1.29-.25,11.82,11.82,0,0,0,6.8-4.72c0.22-.32.43-0.65,0.62-1v0A11.65,11.65,0,0,0,342.86,191.08Zm-13.56-4.62a2.5,2.5,0,0,1,4.63.72,2.54,2.54,0,0,1-.25,1.69l0,0a2.4,2.4,0,0,1-.6.71,2.48,2.48,0,0,1-2.8.25,2.51,2.51,0,0,1-.9-0.86,2.4,2.4,0,0,1-.34-0.89A2.44,2.44,0,0,1,329.3,186.46Z"/><path class="cls-17" d="M341.25,184.12c-1.07-1.17-1.93-.73-3.34-2.18s-1-2.61-2.13-3.78c-2.23-2.4-8.11-2.18-10.09.34-0.76,1-.83,2.11-2.38,3.55a7.72,7.72,0,0,0-1.48,1.41c-0.6.9-.69,1.82-0.71,3.5,0,3-.07,4.44.2,5.14,0.65,1.7,1.83,2.64,3.56,4,1.42,1.14,2.3,1.84,3.66,2s1.43-.27,3.55-0.3,2.45,0.45,3.4.09c1.23-.46,1.26-1.41,2.82-3.22,1.79-2.07,2.41-1.59,3.3-3C343,189.6,343,186,341.25,184.12Zm-10.86,6.36c-1.29,0-2.72-2.21-2.23-3.33a6.76,6.76,0,0,1,.95-0.92c0.76-.89.58-1.44,1.06-1.69s1.44,0.24,2.53,1,1.84,1.21,1.91,2a3.26,3.26,0,0,1-.56,1.57,2.26,2.26,0,0,1-1,1.32,5.49,5.49,0,0,1-1.39-.11C330.93,190.28,330.8,190.49,330.39,190.48Z"/><path class="cls-3" d="M334.42,199.18a11.58,11.58,0,0,1-1.29.25L320.86,193a10.18,10.18,0,0,1-.52-1.2Z"/><path class="cls-3" d="M330.54,185.37L324.62,178c0.23-.16.46-0.31,0.7-0.45l6.14,7.65A2.49,2.49,0,0,0,330.54,185.37Z"/><path class="cls-3" d="M333.95,188a2.43,2.43,0,0,0,0-.87l9.21,2.72a9.93,9.93,0,0,1-.28,1.18l-9.8-1.47a2.4,2.4,0,0,0,.6-0.71l0,0,6.21,0.93Z"/><path class="cls-3" d="M341.86,193.45v0c-0.19.35-.4,0.67-0.62,1l-20.95-2.83c-0.1-.29-0.19-0.57-0.27-0.87l18.12,2.46-18.53-5.48a10,10,0,0,1,.06-1.24l9.35,1.61a2.4,2.4,0,0,0,.34.89l-6.13-1.06Z"/><path class="cls-3" d="M343.32,188.59l-17.65-11.27a9.19,9.19,0,0,1,.85-0.43l14.18,9-12-9.81c0.35-.08.7-0.15,1.06-0.2,3.62,3,9,7.36,13.56,11.11A11.37,11.37,0,0,1,343.32,188.59Z"/><path class="cls-14" d="M334.5,191.48a9.52,9.52,0,0,0-1-.52,9.75,9.75,0,0,0-1.19-.45,10.9,10.9,0,0,0-1.44-.35,11.38,11.38,0,0,0-13.29,10.28c0,0.34,0,.69,0,1a11,11,0,0,0,.24,2.22,8.81,8.81,0,0,0,.22.89c0,0.13.08,0.25,0.12,0.37s0.17,0.5.27,0.75a11.39,11.39,0,0,0,6.88,6.45,9.56,9.56,0,0,0,1.15.32,11.33,11.33,0,0,0,2.91.27c0.3,0,.58,0,0.87-0.06l0.16,0a9.76,9.76,0,0,0,1.23-.23,11.37,11.37,0,0,0,8.66-10.08,11.1,11.1,0,0,0,0-1.26,11.33,11.33,0,0,0-2.95-7.37c-0.25-.28-0.51-0.54-0.79-0.79h0A11.16,11.16,0,0,0,334.5,191.48Zm-7.22,11.68a2.39,2.39,0,0,1,1.66-4.17,2.44,2.44,0,0,1,1.53.6l0,0a2.3,2.3,0,0,1,.54.71,2.38,2.38,0,0,1-.36,2.67,2.41,2.41,0,0,1-1,.66,2.3,2.3,0,0,1-.91.12A2.34,2.34,0,0,1,327.27,203.15Z"/><path class="cls-15" d="M327.65,191.48c-1.33.75-1.1,1.65-2.75,2.65s-2.66.41-4,1.18c-2.72,1.57-3.78,7.11-1.85,9.5,0.73,0.91,1.79,1.23,2.81,3a7.4,7.4,0,0,0,1,1.68A5.7,5.7,0,0,0,326,210.9c2.76,0.68,4.14,1,4.84.92,1.72-.24,2.86-1.14,4.54-2.46,1.37-1.08,2.21-1.75,2.69-3s0.06-1.39.48-3.38,0.95-2.19.82-3.16c-0.17-1.24-1.05-1.48-2.4-3.33-1.55-2.12-1-2.59-2-3.71C333.15,191,329.77,190.29,327.65,191.48ZM331.26,203c-0.31,1.2-2.65,2.07-3.59,1.37a6.48,6.48,0,0,1-.66-1.08c-0.67-.9-1.22-0.85-1.35-1.35s0.53-1.29,1.44-2.16,1.53-1.46,2.27-1.36a3.12,3.12,0,0,1,1.35.86,2.17,2.17,0,0,1,1,1.23,5.26,5.26,0,0,1-.4,1.28C331.19,202.45,331.36,202.62,331.26,203Z"/><path class="cls-3" d="M340.26,201.1a11.1,11.1,0,0,1,0,1.26l-8.66,10.08a9.76,9.76,0,0,1-1.23.23Z"/><path class="cls-3" d="M326.52,201.76l-8.17,3.95c-0.1-.25-0.19-0.49-0.27-0.75l8.46-4.09A2.39,2.39,0,0,0,326.52,201.76Z"/><path class="cls-3" d="M329.75,199.15a2.33,2.33,0,0,0-.81-0.17l4.52-8a9.52,9.52,0,0,1,1,.52L331,200.32a2.3,2.3,0,0,0-.54-0.71l0,0,2.2-5.6Z"/><path class="cls-3" d="M336.5,192.92h0c0.28,0.25.54,0.52,0.79,0.79l-7.14,19c-0.29,0-.58.05-0.87,0.06l6.18-16.4-9.1,16.13a9.56,9.56,0,0,1-1.15-.32l3.51-8.39a2.3,2.3,0,0,0,.91-0.12l-2.3,5.5Z"/><path class="cls-3" d="M332.27,190.51L318,204.59a8.81,8.81,0,0,1-.22-0.89l11.5-11.31-11.74,9.09c0-.34,0-0.69,0-1,3.54-2.75,8.8-6.82,13.29-10.28A10.9,10.9,0,0,1,332.27,190.51Z"/><path class="cls-4" d="M289.5,212a28.2,28.2,0,1,1-6.47.09A28.92,28.92,0,0,1,289.5,212Z"/><path class="cls-5" d="M289.25,214.61a25.63,25.63,0,1,1-5.88.08A26.28,26.28,0,0,1,289.25,214.61Z"/><path class="cls-18" d="M284.16,259.86a4.59,4.59,0,0,0,4.47-2,1.31,1.31,0,0,0,.3-0.79,1.33,1.33,0,0,0-.32-0.9c-0.32-.13-0.66-0.28-1-0.45a11.24,11.24,0,0,1-2.49-1.75Z"/><path class="cls-19" d="M276.87,259.45a8.08,8.08,0,0,0,6.85.75,4,4,0,0,0,1.49-1,5.1,5.1,0,0,0,1-4.37,1.71,1.71,0,0,0-.94-1.22,9.07,9.07,0,0,1-1.39-.86,9.18,9.18,0,0,1-2.38-2.69Z"/><path class="cls-18" d="M271.24,232.65a4.59,4.59,0,0,1,4.37-2.2,1.31,1.31,0,0,1,.8.26,1.33,1.33,0,0,1,.49.82c-0.11.33-.2,0.69-0.29,1.07a11.24,11.24,0,0,0-.23,3Z"/><path class="cls-19" d="M266.94,238.55a8.08,8.08,0,0,1,3.77-5.78,4,4,0,0,1,1.71-.52,5.1,5.1,0,0,1,4,2,1.71,1.71,0,0,1,.35,1.5,9.07,9.07,0,0,0-.21,1.62,9.18,9.18,0,0,0,.57,3.54Z"/><path class="cls-20" d="M281.84,249.91a2.85,2.85,0,0,1,.41,1,8.25,8.25,0,0,1-.92,5.48,8.16,8.16,0,0,1-3.42,3.23,2.93,2.93,0,0,1-2.14.2,15.15,15.15,0,0,1-9.05-7c-3.28-5.86-1.19-11.77-.32-13.73a3,3,0,0,1,1-1.19,7.39,7.39,0,0,1,8.3-.36,3,3,0,0,1,1.3,1.67A43.17,43.17,0,0,0,281.84,249.91Z"/><path class="cls-19" d="M279.86,260.63"/><path class="cls-18" d="M296.34,255.58a4.59,4.59,0,0,0,4.47-2,1.31,1.31,0,0,0,.3-0.79,1.33,1.33,0,0,0-.32-0.9c-0.32-.13-0.66-0.28-1-0.45a11.24,11.24,0,0,1-2.49-1.75Z"/><path class="cls-19" d="M289,255.17a8.08,8.08,0,0,0,6.85.75,4,4,0,0,0,1.49-1,5.1,5.1,0,0,0,1-4.37,1.71,1.71,0,0,0-.94-1.22,9.07,9.07,0,0,1-1.39-.86,9.18,9.18,0,0,1-2.38-2.69Z"/><path class="cls-18" d="M283.41,228.36a4.59,4.59,0,0,1,4.37-2.2,1.31,1.31,0,0,1,.8.26,1.33,1.33,0,0,1,.49.82c-0.11.33-.2,0.69-0.29,1.07a11.24,11.24,0,0,0-.23,3Z"/><path class="cls-19" d="M279.11,234.26a8.08,8.08,0,0,1,3.77-5.78,4,4,0,0,1,1.71-.52,5.1,5.1,0,0,1,4,2,1.71,1.71,0,0,1,.35,1.5,9.07,9.07,0,0,0-.21,1.62,9.18,9.18,0,0,0,.57,3.54Z"/><path class="cls-20" d="M294,245.62a2.85,2.85,0,0,1,.41,1,8.25,8.25,0,0,1-.92,5.48,8.16,8.16,0,0,1-3.42,3.23,2.93,2.93,0,0,1-2.14.2,15.15,15.15,0,0,1-9.05-7c-3.28-5.86-1.19-11.77-.32-13.73a3,3,0,0,1,1-1.19,7.39,7.39,0,0,1,8.3-.36,3,3,0,0,1,1.3,1.67A43.17,43.17,0,0,0,294,245.62Z"/><path class="cls-19" d="M292,256.35"/><path class="cls-18" d="M290,249.3a4.59,4.59,0,0,0,4.7-1.34,1.31,1.31,0,0,0,.41-0.74,1.33,1.33,0,0,0-.2-0.94c-0.3-.17-0.61-0.37-0.93-0.59a11.24,11.24,0,0,1-2.23-2.08Z"/><path class="cls-19" d="M282.8,247.88a8.08,8.08,0,0,0,6.68,1.69,4,4,0,0,0,1.61-.77,5.1,5.1,0,0,0,1.58-4.19,1.71,1.71,0,0,0-.76-1.34,9.07,9.07,0,0,1-1.25-1,9.18,9.18,0,0,1-2-3Z"/><path class="cls-18" d="M280.94,220.55a4.59,4.59,0,0,1,4.63-1.58,1.31,1.31,0,0,1,.75.37,1.33,1.33,0,0,1,.37.88c-0.15.31-.3,0.65-0.43,1a11.24,11.24,0,0,0-.65,3Z"/><path class="cls-19" d="M275.87,225.79a8.08,8.08,0,0,1,4.53-5.2,4,4,0,0,1,1.76-.28,5.1,5.1,0,0,1,3.69,2.54,1.71,1.71,0,0,1,.14,1.53,9.07,9.07,0,0,0-.43,1.58,9.18,9.18,0,0,0,.07,3.59Z"/><path class="cls-20" d="M289,239.11a2.85,2.85,0,0,1,.26,1.09,8.25,8.25,0,0,1-1.67,5.29,8.16,8.16,0,0,1-3.83,2.72,2.93,2.93,0,0,1-2.15-.1,15.15,15.15,0,0,1-8-8.17c-2.44-6.25.45-11.82,1.59-13.64a3,3,0,0,1,1.13-1,7.39,7.39,0,0,1,8.27.8,3,3,0,0,1,1.06,1.84A43.17,43.17,0,0,0,289,239.11Z"/><path class="cls-19" d="M285.6,249.46"/><path class="cls-18" d="M303.61,246.92a4.59,4.59,0,0,0,4.47-2,1.31,1.31,0,0,0,.3-0.79,1.33,1.33,0,0,0-.32-0.9c-0.32-.13-0.66-0.28-1-0.45a11.24,11.24,0,0,1-2.49-1.75Z"/><path class="cls-19" d="M296.33,246.51a8.08,8.08,0,0,0,6.85.75,4,4,0,0,0,1.49-1,5.1,5.1,0,0,0,1-4.37,1.71,1.71,0,0,0-.94-1.22,9.07,9.07,0,0,1-1.39-.86,9.18,9.18,0,0,1-2.38-2.69Z"/><path class="cls-18" d="M290.69,219.71a4.59,4.59,0,0,1,4.37-2.2,1.31,1.31,0,0,1,.8.26,1.33,1.33,0,0,1,.49.82c-0.11.33-.2,0.69-0.29,1.07a11.24,11.24,0,0,0-.23,3Z"/><path class="cls-19" d="M286.39,225.6a8.08,8.08,0,0,1,3.77-5.78,4,4,0,0,1,1.71-.52,5.1,5.1,0,0,1,4,2,1.71,1.71,0,0,1,.35,1.5,9.07,9.07,0,0,0-.21,1.62,9.18,9.18,0,0,0,.57,3.54Z"/><path class="cls-20" d="M301.29,237a2.85,2.85,0,0,1,.41,1,8.25,8.25,0,0,1-.92,5.48,8.16,8.16,0,0,1-3.42,3.23,2.93,2.93,0,0,1-2.14.2,15.15,15.15,0,0,1-9.05-7c-3.28-5.86-1.19-11.77-.32-13.73a3,3,0,0,1,1-1.19,7.39,7.39,0,0,1,8.3-.36,3,3,0,0,1,1.3,1.67A43.17,43.17,0,0,0,301.29,237Z"/><path class="cls-19" d="M299.31,247.69"/><path class="cls-4" d="M350.67,289.19a18.54,18.54,0,1,1-.48-4.23A19,19,0,0,1,350.67,289.19Z"/><path class="cls-5" d="M349,289.19a16.85,16.85,0,1,1-.43-3.84A17.28,17.28,0,0,1,349,289.19Z"/><path class="cls-14" d="M335,277.49a9.89,9.89,0,0,0-1.18-.24,10.13,10.13,0,0,0-1.31-.13,11.33,11.33,0,0,0-1.54,0A11.82,11.82,0,0,0,320.42,291c0.06,0.35.14,0.7,0.24,1a11.47,11.47,0,0,0,.84,2.16,9.16,9.16,0,0,0,.46.83c0.07,0.12.14,0.23,0.22,0.34s0.31,0.46.47,0.68a11.83,11.83,0,0,0,8.64,4.63,9.94,9.94,0,0,0,1.24,0,11.78,11.78,0,0,0,3-.51c0.29-.09.58-0.19,0.86-0.3l0.16-.07a10.15,10.15,0,0,0,1.18-.56,11.81,11.81,0,0,0,6-12.45,11.54,11.54,0,0,0-.3-1.27,11.77,11.77,0,0,0-4.94-6.61c-0.33-.21-0.66-0.4-1-0.58h0A11.6,11.6,0,0,0,335,277.49Zm-4.12,13.66a2.49,2.49,0,0,1,.55-4.63,2.53,2.53,0,0,1,1.69.19h0a2.39,2.39,0,0,1,.73.57,2.48,2.48,0,0,1,.35,2.78,2.5,2.5,0,0,1-.83.93,2.39,2.39,0,0,1-.88.37A2.43,2.43,0,0,1,330.92,291.15Z"/><path class="cls-16" d="M328.17,279.33c-1.13,1.11-.66,1.95-2.05,3.4s-2.56,1.12-3.69,2.26c-2.31,2.31-1.89,8.15.69,10,1,0.72,2.13.75,3.62,2.24a7.69,7.69,0,0,0,1.46,1.42c0.91,0.57,1.84.62,3.51,0.59,2.95-.06,4.43-0.09,5.11-0.38,1.67-.7,2.57-1.91,3.89-3.69,1.08-1.45,1.75-2.35,1.9-3.71s-0.31-1.41-.42-3.52,0.36-2.46,0-3.39c-0.5-1.2-1.45-1.21-3.31-2.7-2.13-1.71-1.67-2.34-3.05-3.18C333.56,277.36,330,277.57,328.17,279.33Zm6.71,10.59c0,1.29-2.11,2.79-3.24,2.34a6.73,6.73,0,0,1-1-.91c-0.91-.72-1.45-0.53-1.72-1s0.19-1.44.86-2.55,1.14-1.88,1.92-2a3.24,3.24,0,0,1,1.59.51,2.25,2.25,0,0,1,1.35,1,5.46,5.46,0,0,1-.06,1.39C334.66,289.39,334.88,289.52,334.88,289.92Z"/><path class="cls-3" d="M343.4,285.6a11.54,11.54,0,0,1,.3,1.27l-6,12.45a10.15,10.15,0,0,1-1.18.56Z"/><path class="cls-3" d="M329.79,290l-7.14,6.16c-0.17-.22-0.33-0.44-0.47-0.68l7.4-6.38A2.48,2.48,0,0,0,329.79,290Z"/><path class="cls-3" d="M332.33,286.47a2.42,2.42,0,0,0-.86.05l2.39-9.27a9.89,9.89,0,0,1,1.18.24l-1.12,9.81a2.39,2.39,0,0,0-.73-0.57h0l0.71-6.22Z"/><path class="cls-3" d="M337.44,278.4h0c0.35,0.18.68,0.37,1,.58l-2.09,21c-0.28.11-.56,0.21-0.86,0.3l1.81-18.13-4.81,18.64a9.94,9.94,0,0,1-1.24,0l1.28-9.37a2.39,2.39,0,0,0,.88-0.37l-0.84,6.14Z"/><path class="cls-3" d="M332.55,277.11l-10.6,18a9.16,9.16,0,0,1-.46-0.83L330,279.82c-3.28,4.3-6.93,9.08-9.35,12.27-0.1-.34-0.17-0.69-0.24-1,2.81-3.71,7-9.21,10.59-13.89A11.33,11.33,0,0,1,332.55,277.11Z"/><circle class="cls-21" cx="611.52" cy="368.19" r="42"/><circle class="cls-21" cx="492.11" cy="400.23" r="42"/><circle class="cls-21" cx="456.81" cy="282.27" r="42"/><circle class="cls-21" cx="569.52" cy="263.91" r="42"/><circle class="cls-21" cx="534.11" cy="140.11" r="42"/><circle class="cls-21" cx="412.36" cy="92.41" r="42"/><circle class="cls-21" cx="191.33" cy="98.11" r="42"/><circle class="cls-21" cx="124.38" cy="224.22" r="42"/><circle class="cls-21" cx="111.78" cy="368.19" r="42"/><circle class="cls-21" cx="218.29" cy="400.23" r="42"/><circle class="cls-21" cx="353.56" cy="390.88" r="42"/><circle class="cls-21" cx="425.68" cy="496.3" r="42"/><circle class="cls-21" cx="160.66" cy="510.17" r="42"/><circle class="cls-21" cx="191.33" cy="640.57" r="42"/><circle class="cls-21" cx="414.28" cy="638.02" r="42"/><circle class="cls-21" cx="521.64" cy="589.05" r="42"/><circle class="cls-21" cx="804.77" cy="629.89" r="42"/><circle class="cls-21" cx="935.53" cy="637.87" r="42"/><circle class="cls-21" cx="877.09" cy="507.32" r="42"/><circle class="cls-21" cx="784.67" cy="390.88" r="42"/><circle class="cls-21" cx="738" cy="296.11" r="42"/><circle class="cls-21" cx="808.78" cy="172.56" r="42"/><circle class="cls-21" cx="909.66" cy="115.89" r="42"/><circle class="cls-21" cx="865.88" cy="273.49" r="42"/><circle class="cls-21" cx="926.33" cy="368.19" r="42"/><circle class="cls-21" cx="1026" cy="432.5" r="42"/><circle class="cls-21" cx="1134.32" cy="372.52" r="42"/><circle class="cls-21" cx="1174.53" cy="492.68" r="42"/><circle class="cls-21" cx="1216.53" cy="260.53" r="42"/><circle class="cls-21" cx="1139.67" cy="98.11" r="42"/><rect class="cls-2" y="306.17" width="31" height="207.33"/><rect class="cls-22" y="306.17" width="18.17" height="207.33"/><rect class="cls-23" y="306.17" width="8.5" height="207.33"/><rect class="cls-2" x="454" y="610.58" width="31" height="207.33" transform="translate(-244.74 1183.74) rotate(-90)"/><rect class="cls-22" x="460.42" y="616.99" width="18.17" height="207.33" transform="translate(-251.15 1190.16) rotate(-90)"/><rect class="cls-23" x="465.25" y="621.83" width="8.5" height="207.33" transform="translate(-255.99 1194.99) rotate(-90)"/><rect class="cls-2" x="868.83" y="610.58" width="31" height="207.33" transform="translate(170.09 1598.57) rotate(-90)"/><rect class="cls-22" x="875.25" y="616.99" width="18.17" height="207.33" transform="translate(163.68 1604.99) rotate(-90)"/><rect class="cls-23" x="880.08" y="621.83" width="8.5" height="207.33" transform="translate(158.84 1609.82) rotate(-90)"/><rect class="cls-2" x="843.14" y="-88.16" width="31" height="207.33" transform="translate(874.14 -843.14) rotate(90)"/><rect class="cls-22" x="849.56" y="-94.58" width="18.17" height="207.33" transform="translate(867.73 -849.56) rotate(90)"/><rect class="cls-23" x="854.39" y="-99.41" width="8.5" height="207.33" transform="translate(862.89 -854.39) rotate(90)"/><rect class="cls-2" x="1289" y="315" width="31" height="207.33" transform="translate(2609 837.33) rotate(-180)"/><rect class="cls-22" x="1301.83" y="315" width="18.17" height="207.33" transform="translate(2621.83 837.33) rotate(-180)"/><rect class="cls-23" x="1311.5" y="315" width="8.5" height="207.33" transform="translate(2631.5 837.33) rotate(-180)"/><circle class="cls-2" cx="84.13" cy="640.5" r="28.04"/><path class="cls-24" d="M84.13,662.75a22.25,22.25,0,1,1,22.25-22.25A22.28,22.28,0,0,1,84.13,662.75Z"/><path class="cls-3" d="M84.13,619.75A20.75,20.75,0,1,1,63.38,640.5a20.75,20.75,0,0,1,20.75-20.75m0-3a23.75,23.75,0,1,0,23.75,23.75,23.78,23.78,0,0,0-23.75-23.75h0Z"/><path class="cls-25" d="M77.5,637.75a56.48,56.48,0,0,1-11.42-18.58,77,77,0,0,0,14.25,16.75Z"/><path class="cls-25" d="M85.25,637.83a36.36,36.36,0,0,1,11.08-6.58c15.76-5.84,30.53,1.57,33.83,3.33a47.18,47.18,0,0,0-42.62,8.23Z"/><path class="cls-26" d="M91.27,642.53a48.14,48.14,0,0,1,8.37,12.88,49.52,49.52,0,0,1,3.64,26.31,87.84,87.84,0,0,0-9.43-25.9,86.89,86.89,0,0,0-8-12Z"/><path class="cls-25" d="M92.54,644.93A78.24,78.24,0,0,1,40.22,649a103.24,103.24,0,0,0,45.44-9.28Z"/><path class="cls-26" d="M77.5,640a48.72,48.72,0,0,1-34.37-32.12,73.17,73.17,0,0,0,40,28.63Z"/><path class="cls-26" d="M83.49,641.35a81.17,81.17,0,0,1,15.22-48.12A103.24,103.24,0,0,0,91.15,639Z"/><path class="cls-27" d="M89,633.38a78.24,78.24,0,0,0-48.37,20.38,103.24,103.24,0,0,1,44.63-12.62Z"/><path class="cls-27" d="M87.33,645.76c11.68-8.62,15.36-24.21,9.17-36.26C91.12,599,79.19,593,66.88,594.63c14,0.86,24.8,11.08,25.88,22.88,1.2,13.11-10.19,21.87-10.86,22.37Z"/><path class="cls-27" d="M78.25,636.88A39,39,0,0,1,75,628c-1.49-6.4-.82-11.05-0.75-14.37,0.11-5.12-1.09-12.6-7.37-22.25a40.47,40.47,0,0,1,10,14.5c2.66,6.76,2,11,5.13,19.25a56.42,56.42,0,0,0,6.13,11.75H78.25Z"/><path class="cls-27" d="M80.33,639.77A60.64,60.64,0,0,0,71.5,671a97.9,97.9,0,0,1,14.33-30.17Z"/><path class="cls-27" d="M81.21,645.13a48.14,48.14,0,0,0,6,14.12,49.52,49.52,0,0,0,19.83,17.67,87.84,87.84,0,0,1-16.27-22.25,86.89,86.89,0,0,1-5.47-13.31Z"/><path class="cls-27" d="M83.65,643.92a28.51,28.51,0,0,1-.89,9.05,29.34,29.34,0,0,1-8,13.52A52,52,0,0,0,79.93,651a51.47,51.47,0,0,0,.71-8.5Z"/><path class="cls-27" d="M91.15,639a70.14,70.14,0,0,0,25.93.59A47.16,47.16,0,0,1,98.71,644a77.09,77.09,0,0,0,36.45,7.33,57.65,57.65,0,0,1-49.92-6.08Z"/><circle class="cls-2" cx="1245.93" cy="81.04" r="21.65" transform="translate(234.22 812.73) rotate(-39.6)"/><path class="cls-24" d="M1245.94,97.31a16.27,16.27,0,1,1,10.36-3.73A16.23,16.23,0,0,1,1245.94,97.31Z"/><path class="cls-3" d="M1245.93,66.27a14.77,14.77,0,1,1-9.41,3.39,14.74,14.74,0,0,1,9.41-3.39m0-3h0a17.77,17.77,0,1,0,13.7,6.44,17.8,17.8,0,0,0-13.7-6.44h0Z"/><path class="cls-25" d="M1247.43,85.93a40.2,40.2,0,0,1-5,14.69,54.83,54.83,0,0,0,2.72-15.41Z"/><path class="cls-25" d="M1244,81.64a25.88,25.88,0,0,1-8.64-3.09c-10.36-6-13-17.46-13.52-20.07a33.58,33.58,0,0,0,23.85,19.64Z"/><path class="cls-26" d="M1243.8,76.21a34.26,34.26,0,0,1,3.27-10.43,35.25,35.25,0,0,1,12.78-13.93,62.52,62.52,0,0,0-9.93,16.92,61.85,61.85,0,0,0-2.92,9.82Z"/><path class="cls-25" d="M1244.54,74.42a55.69,55.69,0,0,1,26,26.83,73.49,73.49,0,0,0-25.7-20.71Z"/><path class="cls-26" d="M1248.66,84.91a34.68,34.68,0,0,1-2,33.43,52.08,52.08,0,0,0-2.45-34.93Z"/><path class="cls-26" d="M1246.69,81a57.77,57.77,0,0,1-33.3,13.48,73.49,73.49,0,0,0,28.53-16.61Z"/><path class="cls-27" d="M1239.81,81.6a55.69,55.69,0,0,0,33.12,17.29,73.49,73.49,0,0,1-27.17-18.75Z"/><path class="cls-27" d="M1247.36,76.9c-10-2.49-20.25,2.55-24,11.42a20.54,20.54,0,0,0,5.28,23c-5.89-8.07-5.17-18.63.81-24.57,6.65-6.61,16.62-4.33,17.19-4.19Z"/><path class="cls-27" d="M1246.61,85.91a27.76,27.76,0,0,1-3.39,5.81,34.47,34.47,0,0,1-7.54,6.93c-2.85,2.26-6.41,6.32-8.86,14.14a28.81,28.81,0,0,1,3.42-12.06c2.5-4.52,5.12-6.07,8.23-11.54a40.16,40.16,0,0,0,3.67-8.69Z"/><path class="cls-27" d="M1247.25,83.46a43.16,43.16,0,0,0,21.14-9.32,69.68,69.68,0,0,1-23,5.82Z"/><path class="cls-27" d="M1249.8,80.54a34.26,34.26,0,0,0,5-9.72,35.25,35.25,0,0,0,.69-18.89,62.52,62.52,0,0,1-4.82,19,61.85,61.85,0,0,1-4.82,9Z"/><path class="cls-27" d="M1248,79.75a20.3,20.3,0,0,1,5.37-3.62,20.88,20.88,0,0,1,11.06-1.73,37,37,0,0,0-10.85,4.16,36.64,36.64,0,0,0-5,3.47Z"/><path class="cls-27" d="M1241.92,77.88a49.93,49.93,0,0,0-11.44-14.49,33.57,33.57,0,0,1,10.76,8.07,54.87,54.87,0,0,0-12.52-23.32A41,41,0,0,1,1248,78.27Z"/><path class="cls-25" d="M70.88,93.25a28.58,28.58,0,0,0-14.25,4.13,28,28,0,0,0-7.12,6.25,43,43,0,0,0,6.63,4.13,44.37,44.37,0,0,0,18.5,4.63Z"/><path class="cls-26" d="M73.88,93.38A33.19,33.19,0,0,1,62.25,81.25,32.76,32.76,0,0,1,58.5,70a37.36,37.36,0,0,1,12,2,37.86,37.86,0,0,1,15.13,9.75,32.62,32.62,0,0,1,14.63-13.5,30.78,30.78,0,0,1,9.13-2.5,27.92,27.92,0,0,1-.62,10A28.26,28.26,0,0,1,102,88.13a40.86,40.86,0,0,1,11,15.13,39.88,39.88,0,0,1,2.63,9.5A37.67,37.67,0,0,1,105.5,112a38.61,38.61,0,0,1-16.58-8.12A39.86,39.86,0,0,1,79.5,119a37.63,37.63,0,0,1-3.25,2.88A7,7,0,0,1,75,118.5a6.76,6.76,0,0,1,.13-2l-2-11.87a32.38,32.38,0,0,1-6.75-1.87c-0.8-.32-1.55-0.65-2.25-1a30.93,30.93,0,0,1,2.25-2.62A31.47,31.47,0,0,1,73.88,93.38Z"/><path class="cls-27" d="M78,81.5a31.19,31.19,0,0,1,4.33-32.17A30.68,30.68,0,0,1,95,81.5,39.44,39.44,0,0,1,111.83,84a39,39,0,0,1,10,5.67A28.38,28.38,0,0,1,99,102.33a22.67,22.67,0,0,1,8.5,23.5,17.92,17.92,0,0,1-9.83-3A17.48,17.48,0,0,1,93,118.17a29.27,29.27,0,0,1-6.67,12.67A17.64,17.64,0,0,1,78,116.5a20.35,20.35,0,0,1-16,8.17,32.39,32.39,0,0,1,.67-11.33,32.75,32.75,0,0,1,7.33-14,26.7,26.7,0,0,1-14-9.25A43.95,43.95,0,0,1,78,81.5Z"/><path class="cls-25" d="M85.75,91.25a11.8,11.8,0,0,1-2-18.81A12,12,0,0,1,85.75,91.25Z"/><path class="cls-25" d="M88.35,92.56a11.8,11.8,0,0,1,11.89-14.72A12,12,0,0,1,88.35,92.56Z"/><path class="cls-25" d="M89.09,93.06a11.8,11.8,0,0,1,18.91.51A12,12,0,0,1,89.09,93.06Z"/><path class="cls-25" d="M86.38,97.38a11.8,11.8,0,0,1,11.84,14.75A12,12,0,0,1,86.38,97.38Z"/><path class="cls-26" d="M81.59,100.79A13,13,0,0,1,77,121.06,13.2,13.2,0,0,1,81.59,100.79Z"/><path class="cls-26" d="M82.09,98.24a13,13,0,0,1-19.84,6.18A13.2,13.2,0,0,1,82.09,98.24Z"/><path class="cls-25" d="M1240.36,651.69a28.58,28.58,0,0,0,11.07,9.88,28,28,0,0,0,9.08,2.71,43,43,0,0,0,0-7.8,44.37,44.37,0,0,0-5.91-18.13Z"/><path class="cls-26" d="M1238.87,649.08a33.19,33.19,0,0,1-4.09,16.29,32.76,32.76,0,0,1-7.54,9.16,37.36,37.36,0,0,1-4.68-11.23,37.86,37.86,0,0,1,.22-18,32.62,32.62,0,0,1-19.21-5.21,30.78,30.78,0,0,1-7-6.4,27.92,27.92,0,0,1,8.8-4.79,28.26,28.26,0,0,1,14.07-.86,40.86,40.86,0,0,1,7-17.36,39.88,39.88,0,0,1,6.65-7.27,37.67,37.67,0,0,1,4.75,9,38.61,38.61,0,0,1,1.93,18.37,39.86,39.86,0,0,1,17.82-.06,37.63,37.63,0,0,1,4.16,1.23,7,7,0,0,1-2.19,2.85,6.76,6.76,0,0,1-1.76,1l-9,8a32.38,32.38,0,0,1,2,6.71c0.15,0.84.27,1.66,0.35,2.44a30.93,30.93,0,0,1-3.42-.51A31.47,31.47,0,0,1,1238.87,649.08Z"/><path class="cls-27" d="M1226.62,651.9a31.19,31.19,0,0,1-29.55,13.43,30.68,30.68,0,0,1,20.52-27.83,39.44,39.44,0,0,1-6.83-15.59,39,39,0,0,1-.51-11.48A28.38,28.38,0,0,1,1233.11,623a22.67,22.67,0,0,1,15.39-19.69,17.92,17.92,0,0,1,2.68,9.92,17.48,17.48,0,0,1-1.47,6.43,29.27,29.27,0,0,1,14.27-1.08,17.64,17.64,0,0,1-7.71,14.68,20.35,20.35,0,0,1,15.42,9.21,32.39,32.39,0,0,1-10,5.46A32.75,32.75,0,0,1,1246,649.2a26.7,26.7,0,0,1-.39,16.78A43.95,43.95,0,0,1,1226.62,651.9Z"/><path class="cls-25" d="M1230.76,640.15a11.8,11.8,0,0,1-14.87,11.69A12,12,0,0,1,1230.76,640.15Z"/><path class="cls-25" d="M1230.49,637.25a11.8,11.8,0,0,1-18.78-2.25A12,12,0,0,1,1230.49,637.25Z"/><path class="cls-25" d="M1230.52,636.36a11.8,11.8,0,0,1-9.62-16.29A12,12,0,0,1,1230.52,636.36Z"/><path class="cls-25" d="M1235.61,636.36a11.8,11.8,0,0,1,6.2-17.87A12,12,0,0,1,1235.61,636.36Z"/><path class="cls-26" d="M1241.06,638.6a13,13,0,0,1,19.62-6.86A13.2,13.2,0,0,1,1241.06,638.6Z"/><path class="cls-26" d="M1238.63,639.53a13,13,0,0,1,15.78,13.52A13.2,13.2,0,0,1,1238.63,639.53Z"/><path class="cls-25" d="M673.08,185.09a11.57,11.57,0,0,0,4.48,4,11.34,11.34,0,0,0,3.68,1.1,17.39,17.39,0,0,0,0-3.16,18,18,0,0,0-2.39-7.34Z"/><path class="cls-26" d="M672.47,184a13.44,13.44,0,0,1-1.66,6.6,13.26,13.26,0,0,1-3.05,3.71,15.13,15.13,0,0,1-1.9-4.55,15.33,15.33,0,0,1,.09-7.29,13.21,13.21,0,0,1-7.78-2.11,12.46,12.46,0,0,1-2.82-2.59,11.3,11.3,0,0,1,3.56-1.94,11.44,11.44,0,0,1,5.7-.35,16.55,16.55,0,0,1,2.82-7,16.15,16.15,0,0,1,2.69-2.94,15.25,15.25,0,0,1,1.92,3.63,15.63,15.63,0,0,1,.78,7.44,16.14,16.14,0,0,1,7.21,0,15.24,15.24,0,0,1,1.69.5,2.82,2.82,0,0,1-.89,1.15,2.74,2.74,0,0,1-.71.39l-3.64,3.24a13.11,13.11,0,0,1,.81,2.72c0.06,0.34.11,0.67,0.14,1a12.52,12.52,0,0,1-1.38-.21A12.74,12.74,0,0,1,672.47,184Z"/><path class="cls-27" d="M667.51,185.17a12.63,12.63,0,0,1-12,5.44,12.42,12.42,0,0,1,8.31-11.27,16,16,0,0,1-2.76-6.31,15.8,15.8,0,0,1-.21-4.65,11.49,11.49,0,0,1,9.26,5.11,9.18,9.18,0,0,1,6.23-8,7.26,7.26,0,0,1,1.09,4,7.08,7.08,0,0,1-.6,2.6,11.85,11.85,0,0,1,5.78-.44,7.14,7.14,0,0,1-3.12,5.94,8.24,8.24,0,0,1,6.24,3.73,13.11,13.11,0,0,1-4,2.21,13.26,13.26,0,0,1-6.38.5,10.81,10.81,0,0,1-.16,6.79A17.79,17.79,0,0,1,667.51,185.17Z"/><path class="cls-25" d="M669.19,180.42a4.78,4.78,0,0,1-6,4.73A4.86,4.86,0,0,1,669.19,180.42Z"/><path class="cls-25" d="M669.08,179.24a4.78,4.78,0,0,1-7.61-.91A4.86,4.86,0,0,1,669.08,179.24Z"/><path class="cls-25" d="M669.09,178.88a4.78,4.78,0,0,1-3.9-6.6A4.86,4.86,0,0,1,669.09,178.88Z"/><path class="cls-25" d="M671.15,178.88a4.78,4.78,0,0,1,2.51-7.24A4.86,4.86,0,0,1,671.15,178.88Z"/><path class="cls-26" d="M673.36,179.79A5.25,5.25,0,0,1,681.3,177,5.34,5.34,0,0,1,673.36,179.79Z"/><path class="cls-26" d="M672.38,180.17a5.25,5.25,0,0,1,6.39,5.47A5.34,5.34,0,0,1,672.38,180.17Z"/><path class="cls-25" d="M1052.6,555.73a11.57,11.57,0,0,0,.92-5.94,11.34,11.34,0,0,0-1.08-3.68,17.39,17.39,0,0,0-2.64,1.73,18,18,0,0,0-4.85,6Z"/><path class="cls-26" d="M1052,556.81a13.44,13.44,0,0,1,6.43-2.2,13.26,13.26,0,0,1,4.77.54,15.13,15.13,0,0,1-2.78,4.07,15.33,15.33,0,0,1-6.16,3.89,13.21,13.21,0,0,1,2.46,7.67,12.46,12.46,0,0,1-.64,3.78,11.3,11.3,0,0,1-3.57-1.93,11.44,11.44,0,0,1-3.39-4.59,16.55,16.55,0,0,1-7.43,1.46,16.15,16.15,0,0,1-3.94-.66,15.25,15.25,0,0,1,2-3.59,15.63,15.63,0,0,1,5.81-4.7,16.14,16.14,0,0,1-3.95-6,15.24,15.24,0,0,1-.5-1.68,2.82,2.82,0,0,1,1.45.12,2.74,2.74,0,0,1,.71.39l4.7,1.29a13.11,13.11,0,0,1,1.84-2.16c0.25-.24.5-0.46,0.75-0.66a12.52,12.52,0,0,1,.58,1.27A12.74,12.74,0,0,1,1052,556.81Z"/><path class="cls-27" d="M1055.7,560.35a12.63,12.63,0,0,1,11.07,7.08,12.42,12.42,0,0,1-14-.83,16,16,0,0,1-3.79,5.76,15.8,15.8,0,0,1-3.79,2.71,11.49,11.49,0,0,1-.76-10.54,9.18,9.18,0,0,1-10.08-.89,7.26,7.26,0,0,1,2.78-3.1,7.08,7.08,0,0,1,2.51-.92,11.85,11.85,0,0,1-3.51-4.61,7.14,7.14,0,0,1,6.68-.62,8.24,8.24,0,0,1-.27-7.27,13.11,13.11,0,0,1,4,2.18,13.26,13.26,0,0,1,3.89,5.08,10.81,10.81,0,0,1,5.78-3.56A17.79,17.79,0,0,1,1055.7,560.35Z"/><path class="cls-25" d="M1050.8,561.53A4.78,4.78,0,0,1,1058,564,4.86,4.86,0,0,1,1050.8,561.53Z"/><path class="cls-25" d="M1049.87,562.26a4.78,4.78,0,0,1,3.38,6.88A4.86,4.86,0,0,1,1049.87,562.26Z"/><path class="cls-25" d="M1049.56,562.45a4.78,4.78,0,0,1-3.41,6.86A4.86,4.86,0,0,1,1049.56,562.45Z"/><path class="cls-25" d="M1048.44,560.72a4.78,4.78,0,0,1-7.44,1.83A4.86,4.86,0,0,1,1048.44,560.72Z"/><path class="cls-26" d="M1048,558.38a5.25,5.25,0,0,1-6.65-5.15A5.34,5.34,0,0,1,1048,558.38Z"/><path class="cls-26" d="M1048.86,559a5.25,5.25,0,0,1,1.11-8.34A5.34,5.34,0,0,1,1048.86,559Z"/></svg>